/* XPM */
static char *openss7-logo-small[] = {
/* columns rows colors chars-per-pixel */
"64 64 191 2",
"   c #020202",
".  c #020206",
"X  c #060606",
"o  c gray4",
"O  c #0e0e0e",
"+  c gray7",
"@  c #161616",
"#  c #161a1a",
"$  c gray10",
"%  c #1a1a1e",
"&  c #1e1e1e",
"*  c #060a22",
"=  c #0e1232",
"-  c #1a1a22",
";  c #222222",
":  c gray15",
">  c #2a2a2a",
",  c gray18",
"<  c #262632",
"1  c #323232",
"2  c gray21",
"3  c #3a3a3a",
"4  c #3e3e3e",
"5  c #1a1e46",
"6  c #3e3e52",
"7  c gray26",
"8  c #464646",
"9  c gray29",
"0  c #4e4e4e",
"q  c #4e4e52",
"w  c gray32",
"e  c #565656",
"r  c #5a5a5a",
"t  c gray37",
"y  c #626262",
"u  c gray40",
"i  c #6a6a6a",
"p  c gray43",
"a  c #6e6e72",
"s  c #727272",
"d  c #767676",
"f  c gray48",
"g  c #7e7e7e",
"h  c #1e2696",
"j  c #1e2ab2",
"k  c #2a2e86",
"l  c #222aba",
"z  c #222eba",
"x  c #262eba",
"c  c #2632ba",
"v  c #2632be",
"b  c #2a32ba",
"n  c #2a32be",
"m  c #2a36be",
"M  c #2e36be",
"N  c #2e3abe",
"B  c #323abe",
"V  c #2e3ac2",
"C  c #363ec2",
"Z  c #3642c2",
"A  c #3a42c2",
"S  c #3e46c2",
"D  c #3e46c6",
"F  c #7e7e8a",
"G  c #7276a2",
"H  c #424ac6",
"J  c #464ec6",
"K  c #4a52c6",
"L  c #4e56ca",
"P  c #525aca",
"I  c #565aca",
"U  c #565eca",
"Y  c #5a62ca",
"T  c #5a62ce",
"R  c #5e62ce",
"E  c #5e66ce",
"W  c #626ace",
"Q  c #666ece",
"!  c #6a72d2",
"~  c #6e76d2",
"^  c #7276d2",
"/  c #7276d6",
"(  c #727ad2",
")  c #727ad6",
"_  c #767ad6",
"`  c #767ed6",
"'  c #7a7ed6",
"]  c #7a82d6",
"[  c #7e86da",
"{  c gray51",
"}  c #868686",
"|  c gray54",
" . c #8e8e8e",
".. c #8a8a9e",
"X. c #929292",
"o. c gray59",
"O. c #9a9a9a",
"+. c gray62",
"@. c #a2a2a2",
"#. c gray65",
"$. c #aaaaaa",
"%. c #aeaeae",
"&. c #b2b2b2",
"*. c #b6b6b6",
"=. c gray73",
"-. c gray",
";. c #8286da",
":. c #828ada",
">. c #868ada",
",. c #868eda",
"<. c #8a8eda",
"1. c #8a92da",
"2. c #8e92da",
"3. c #8e92de",
"4. c #8e96de",
"5. c #9296de",
"6. c #929ade",
"7. c #969ade",
"8. c #969ede",
"9. c #9a9ee2",
"0. c #9ea2e2",
"q. c #9ea6e2",
"w. c #bebece",
"e. c #b6b6d6",
"r. c #a2a2e2",
"t. c #a2a6e2",
"y. c #a6aae2",
"u. c #aaaae6",
"i. c #aaaee6",
"p. c #aeb2e6",
"a. c #b2b6e6",
"s. c #b6b6ea",
"d. c #b6baea",
"f. c #babeea",
"g. c #bebeea",
"h. c #bec2ea",
"j. c #bec2ee",
"k. c gray76",
"l. c #c6c6c6",
"z. c #c6c6ca",
"x. c #cacaca",
"c. c #cecece",
"v. c #cacad2",
"b. c #cacade",
"n. c #cecede",
"m. c #d2d2d2",
"M. c gray84",
"N. c #d6d6de",
"B. c #dadada",
"V. c #dadade",
"C. c gray87",
"Z. c #c2c2ee",
"A. c #c2c6ee",
"S. c #c6c6ee",
"D. c #c6caee",
"F. c #cacee6",
"G. c #cacaee",
"H. c #caceee",
"J. c #ceceee",
"K. c #ced2f2",
"L. c #d6d6e2",
"P. c #dadae2",
"I. c #dedee6",
"U. c #d2d2f2",
"Y. c #d2d6f2",
"T. c #d6d6f2",
"R. c #d6daf2",
"E. c #dadaf2",
"W. c #dadef6",
"Q. c #dedef6",
"!. c #dee2f6",
"~. c #e2e2e2",
"^. c #e6e6e6",
"/. c #eaeaea",
"(. c #eeeeee",
"). c #e2e2f6",
"_. c #e6e6f6",
"`. c #e6eafa",
"'. c #eaeafa",
"]. c #eaeefa",
"[. c #eeeefa",
"{. c gray95",
"}. c #f6f6f6",
"|. c #f2f2fa",
" X c #f6f6fa",
".X c #f6f6fe",
"XX c #f6fafe",
"oX c gray98",
"OX c #fafafe",
"+X c #fafefe",
"@X c #fefefe",
/* pixels */
"@X@X@X@X@X@X@X@X@X@X@X@X@X@X@X@X@X@X@X@X@X@X@X@X@X@X@X@X@X@X@X@X@X@X@X@X@X@X@X@X@X@X@X@X@X@X@X@X@X@X@X@X@X@X@X@X@X@X@X@X@X@X@X@X",
"@X@X@X@X@X@X@X@X@X@X@X@X@X@X@X@X@X@X@X@X@X@X@X@X@X@X@X@X@X@X@X@X@X@X@X@X@X@X@X@X@X@X@X@X@X@X@X@X@X@X@X@X@X@X@X@X@X@X@X@X@X@X@X@X",
"@X@X@X@X@X@X@X@X@X@X@X@X@X@X@X@X@X@X@X@X@X@XOXa.:.` ;.y.'.@X@X@X@X@X@XoX%.r , & , t c.@X@X@X@X@X@X@X@X@X@X@X@X@X@X@X@X@X@X@X@X@X",
"@X@X@X@X@X@X@X@X@X@X@X@X@X@X@X@X@X@X@X@X@XJ.S j x J H z c ` '.@X@X@Xg >   X 7 u 1 X X } @X@X@X@X@X@X@X@X@X@X@X@X@X@X@X@X@X@X@X@X",
"@X@X@X@X@X@X@X@X@X@X@X@X@X@X@X@X@X@X@X@XH.m l Q _.@X@XQ.' c C h.@Xd   X i ^.@X@X@X&.@    .@X@X@X@X@X@X@X@X@X@X@X@X@X@X@X@X@X@X@X",
"@X@X@X@X@X@X@X@X@X@X@X@X@X@X@X@X@X@X@X|.A l ` @X@X@X@X@X@XJ.S z 6   $ g @X@X@X@X@X@Xc.O o m.@X@X@X@X@X@X@X@X@X@X@X@X@X@X@X@X@X@X",
"@X@X@X@X@X@X@X@X@X@X@X@X@X@X@X@X@X@X@X,.l J .X@X@X@X@X@X@X@X_.5   - C.@X@X@X@X@X@X@X@XX.  0 @X@X@X@X@X@X@X@X@X@X@X@X@X@X@X@X@X@X",
"@X@X@X@X@X@X@X@X@X@X@X@X@X@X@X@X@X@X|.N l Z.@X@X@X@X@X@X@X@Xs   * h i.@X@X@X@X@X@X@X@X}.; X B.@X@X@X@X@X@X@X@X@X@X@X@X@X@X@X@X@X",
"@X@X@X@X@X@X@X@X@X@X@X@X@X@X@X@X@X@Xu.z J @X@X@X@X@X@X@X@X@.  O w.S n K.@X@X@X@X@X@X@X@X}   g @X@X@X@X@X@X@X@X@X@X@X@X@X@X@X@X@X",
"@X@X@X@X@X@X@X@X@X@X@X@X@X@X@X@X@X@XW j 4.@X@X@X@X@X@X@XM.O   %.@XT.m A [.@X@X@X@X@X@X@XC.  1 @X@X@X@X@X@X@X@X@X@X@X@X@X@X@X@X@X",
"@X@X@X@X@X@X@X@X@X@X@X@X@X@X@X@X@XXXM l Y.@X@X@X@X@X@XoX2   p @X@X@Xy.z ^ @X@X@X@X@X@X@X@X> X (.@X@X@X@X@X@X@X@X@X@X@X@X@X@X@X@X",
"@X@X@X@X@X@X@X@X@X@X@X@X@X@X@X@X@XT.l B .X@X@X@X@X@X@X|   : {.@X@X@X@XW j d.@X@X@X@X@X@X@Xu   =.@X@X@X@X@X@X@X@X@X@X@X@X@X@X@X@X",
"@X@X@X@X@X@X@X@X@X@X@X@X@X@X@X@X@Xp.l U @X@X@X@X@X@X~.o   =.@X@X@X@X@X_.M A .X@X@X@X@X@X@XX.   .@X@X@X@X@X@X@X@X@X@X@X@X@X@X@X@X",
"@X@X@X@X@X@X@X@X@X@X@X@X@X@X@X@X@X3.l _ @X@X@X@X@X@Xe   r @X@X@X@X@X@X@X9.x >.@X@X@X@X@X@X*.  p @X@X@X@X@X@X@X@X@X@X@X@X@X@X@X@X",
"@X@X@X@X@X@X@X@X@X@X@X@X@X@X@X@X@X) j 5.@X@X@X@X@Xl.  o ~.@X@X@X@X@X@X@XXXJ N ).@X@X@X@X@Xm.  w @X@X@X@X@X@X@X@X@X@X@X@X@X@X@X@X",
"@X@X@X@X@X@X@X@X@X@X@X@X@X@X@X@X@XE z y.@X@X@X@X@X9 X d @X@X@X@X@X@X@X@X@Xa.x ` @X@X@X@X@X/.  3 @X@X@X@X@X@X@X@X@X@X@X@X@X@X@X@X",
"@X@X@X@X@X@X@X@X@X@X@X@X@X@X@X@X@XL l s.@X@X@X@Xk.  O /.@X@X@X@X@X@X@X@X@X@XP V ).@X@X@X@X}.O 1 @X@X@X@X@X@X@X@X@X@X@X@X@X@X@X@X",
"@X@X@X@X@X@X@X@X@X@X@X@X@X@X@X@X@XK l f.@X@X@X@X9 X f @X@X@X@X@X@X@X@X@X@X@Xf.M ] @X@X@X@X}.O : @X@X@X@X@X@X@X@X@X@X@X@X@X@X@X@X",
"@X@X@X@X@X@X@X@X@X@X@X@X@X@X@X@X@XK z h.@X@X@Xm.X o ^.@X@X@X@X@X@X@X@X@X@X@XoXP H ].@X@X@XoX$ , @X@X@X@X@X@X@X@X@X@X@X@X@X@X@X@X",
"@X@X@X@X@X@X@X@X@X@X@X@X@X@X@X@X@XK c A.@X@X@Xp O y @X@X@X@X@X@X@X@X@X@X@X@X@Xp.A 7.@X@X@X}.& , @X@X@X@X@X@X@X@X@X@X@X@X@X@X@X@X",
"@X@X@X@X@X@X@X@X@X@X@X@X@X@X@X@X@XR A h.@X@X(.$ @ x.@X@X@X@X@X@X@X@X@X@X@X@X@X|.T W @X@X@XoX2 0 @X@X@X@X@X@X@X@X@X@X@X@X@X@X@X@X",
"@X@X@X@X@X@X@X@X@X@X@X@X@X@X@X@X@X[ Y A.@X@X$., 0 @X@X@X@X@X@X@X@X@X@X@X@X@X@X@Xt.! J.@X@X(.0 p @X@X@X@X@X@X@X@X@X@X@X@X@X@X@X@X",
"@X@X@X@X@X@X@X@X@X@X@X@X@X@X@X@X@Xy.,.H.@X@Xg e *.@X@X@X@X@X@X@X@X@X@X@X@X@X@X@X`.1.p.@X@X(.p X.@X@X@X@X@X@X@X@X@X@X@X@X@X@X@X@X",
"@X@X@X@X@X@X@X@X@X@X@X@X@X@X@X@X@XG.u.U.@X(.{ g (.@X@X@X@X@X@X@X@X@X@X@X@X@X@X@X@Xa.i..X@X^.X.=.@X@X@X@X@X@X@X@X@X@X@X@X@X@X@X@X",
"@X@X@X@X@X@X@X@X@X@X@X@X@X@X@X@X@XW.h.E.@XM.+.*.@X@X@X@X@X@X@X@X@X@X@X@X@X@X@X@X@XW.d.!.@X^.@.m.@X@X@X@X@X@X@X@X@X@X@X@X@X@X@X@X",
"@X@X@X@X@X@X@X@X@X@X@X@X@X@X@X@X@X_.G.R.@Xx.*.C.@X@X@X@X@X@X@X@X@X@X@X@X@X@X@X@X@X|.h.J.@XC.*.C.@X@X@X@X@X@X@X@X@X@X@X@X@X@X@X@X",
"@X@X@X@X@X@Xx.$.x.@X@X@X@X@X@X@X@X|.U.E.}.x.l.@X@X@X@X@X@X@X@X@X@X@X@X@X@X@X@Xz.$.l.Y.G.OXB.-.(.^.$.$.@X@X@X@X@X@X@X@X@X@X@X@X@X",
"@X@X@X@X$.& 2 e $ & x.@X@X@X@X@X@XXXR.E.^.c.B.@X@X@X@X@X@X@X@X@X@X@X@X@X@X^.3 & e 3 % e.'.m.k.p   e e   $.@X@X .e e e e e e @X@X",
"@X@X@Xx.  $.@X@X@X .  ^.@X@X@X@X@X@XR.R.V.m./.@X@X@X@X@X@X@X@X@X@X@X@X@X@Xs 3 @X@X@Xw @ W.c.O.  ~.@X@X$.  x.@Xl.$.$.$.$.e e @X@X",
"@X@X@X2 s @X@X@X@X@X3 2 @X@X@X@Xx.$.!.E.m.m.}.^.$.x.@X@X@X@X@X@X$.x.@X@X@X  $.@X@X@X@X  ..l.8 w @X@X@X@Xe w @X@X@X@X@X~.& ~.@X@X",
"@X@X^.  x.@X@X@X@X@X$.  ^.$.& w 3 3 % #.m.M.w & w & e @X@Xe e 3 w   e @X@X  s @X@X@X@XQ.b.l.9 & @X@X@X@X@X@X@X@X@X@X@X2  .@X@X@X",
"@X@X$.  @X@X@X@X@X@X@X  $.$.  s @X@Xq # m.%.& ~.@X~.&  .@Xe   ~.@Xl.  $.@X .  & s $.@X].F.l.*.&   e $.~.@X@X@X@X@X@Xx.3 @X@X@X@X",
"@X@X$.  @X@X@X@X@X@X@X  $.$.  ~.@X@XP.  #.0 s @X@X@X .e @Xw e @X@X@X  $.@X@Xl. .3     p v.l.}.~.$.e     3 ^.@X@X@X@X3  .@X@X@X@X",
"@X@X$.  ^.@X@X@X@X@X~.  $.$.  @X@X@X@X  | w           e @Xe e @X@X@X  $.@X@X@X@X@X@X .  a l.oX@X@X@X@Xl.& 2 @X@X@Xl.& @X@X@X@X@X",
"@X@X@X   .@X@X@X@X@X .  @X$.  @X@X@X X   .q  .@X@X@X@X@X@Xe e @X@X@X  $.$.  @X@X@X@X@Xw 7 v.  $.@X@X@X@X$.  @X@X@Xw s @X@X@X@X@X",
"@X@X@Xs & ^.@X@X@X^.$ s @X$.   .@X@X}   m.F 3 @X@X@X3 s @Xw e @X@X@X  $.^.  $.@X@X@X@X$ r b.2 e @X@X@X@Xs & @X@X@X  $.@X@X@X@X@X",
"@X@X@X@Xw &  .$. .& e @X@X$.  &  . .$ t N.k.& 3 $.s & ^.@Xe e @X@X@X  $.@X$.  s $. .& @ %.F.n.& 3 $.$.3   $.@X@Xl.  @X@X@X@X@X@X",
"@X@X@X@X@Xl.e e s l.@X@X@X$.  ~.e e g m.Y.R.P.s e s ~.@X@Xl.l.@X@X@X$.~.@X@Xl.s e e  .l.x.J.!.~. .e e s ~.@X@X@X~.$.@X@X@X@X@X@X",
"@X@X@X@X@X@X@X@X@X@X@X@X@X$.  @X@X@XV.m.L.R.'.@X@X@X@X@X@X@X@X@X@X@X@X@X@X@X@X@X@X@X(.-.N.G.Y.@X@X@X@X@X@X@X@X@X@X@X@X@X@X@X@X@X",
"@X@X@X@X@X@X@X@X@X@X@X@X@X$.  @X@X@Xm.x.`.K.R.@X@X@X@X@X@X@X@X@X@X@X@X@X@X@X@X@X@X@Xc.&.(.A.A.@X@X@X@X@X@X@X@X@X@X@X@X@X@X@X@X@X",
"@X@X@X@X@X@X@X@X@X@X@X@X@X@X@X@X@X@X-.=.}.S.j.|.@X@X@X@X@X@X@X@X@X@X@X@X@X@X@X@X@XoX#.#.oXg.p.@X@X@X@X@X@X@X@X@X@X@X@X@X@X@X@X@X",
"@X@X@X@X@X@X@X@X@X@X@X@X@X@X@X@X@X{.+.@.OXA.r.D.@X@X@X@X@X@X@X@X@X@X@X@X@X@X@X@X@XM.g =.@Xd.6.|.@X@X@X@X@X@X@X@X@X@X@X@X@X@X@X@X",
"@X@X@X@X@X@X@X@X@X@X@X@X@X@X@X@X@X^.p g @XW./ [ +X@X@X@X@X@X@X@X@X@X@X@X@X@X@X@X@X} w ~.@Xi.` _.@X@X@X@X@X@X@X@X@X@X@X@X@X@X@X@X",
"@X@X@X@X@X@X@X@X@X@X@X@X@X@X@X@X@Xc.7 t @XOXQ J S.@X@X@X@X@X@X@X@X@X@X@X@X@X@X@X(., w oX@Xt.I Y.@X@X@X@X@X@X@X@X@X@X@X@X@X@X@X@X",
"@X@X@X@X@X@X@X@X@X@X@X@X@X@X@X@X@X-.; w @X@X0.Z ~ @X@X@X@X@X@X@X@X@X@X@X@X@X@X@X| + +.@X@Xq.D D.@X@X@X@X@X@X@X@X@X@X@X@X@X@X@X@X",
"@X@X@X@X@X@X@X@X@X@X@X@X@X@X@X@X@X=.+ 9 @X@X'.b V _.@X@X@X@X@X@X@X@X@X@X@X@X@XoX: $ (.@X@X0.M f.@X@X@X@X@X@X@X@X@X@X@X@X@X@X@X@X",
"@X@X@X@X@X@X@X@X@X@X@X@X@X@X@X@X@X&.X 8 @X@X@X^ j :.@X@X@X@X@X@X@X@X@X@X@X@X@X#.  f @X@X@Xq.b f.@X@X@X@X@X@X@X@X@X@X@X@X@X@X@X@X",
"@X@X@X@X@X@X@X@X@X@X@X@X@X@X@X@X@X*.X 7 @X@X@XT.x n [.@X@X@X@X@X@X@X@X@X@X@X@X2 X C.@X@X@X0.n d.@X@X@X@X@X@X@X@X@X@X@X@X@X@X@X@X",
"@X@X@X@X@X@X@X@X@X@X@X@X@X@X@X@X@Xk.  2 @X@X@X@XW z 5.@X@X@X@X@X@X@X@X@X@X@X&.X u @X@X@X@X7.c A.@X@X@X@X@X@X@X@X@X@X@X@X@X@X@X@X",
"@X@X@X@X@X@X@X@X@X@X@X@X@X@X@X@X@Xm.  > @X@X@X@XY.l M [.@X@X@X@X@X@X@X@X@X@X2 X C.@X@X@X@X<.x J.@X@X@X@X@X@X@X@X@X@X@X@X@X@X@X@X",
"@X@X@X@X@X@X@X@X@X@X@X@X@X@X@X@X@X^.  @ @X@X@X@X@X! z >.@X@X@X@X@X@X@X@X@X#.. s @X@X@X@X@X' c !.@X@X@X@X@X@X@X@X@X@X@X@X@X@X@X@X",
"@X@X@X@X@X@X@X@X@X@X@X@X@X@X@X@X@XoXo   (.@X@X@X@XQ.v n !.@X@X@X@X@X@X@X}.; @ /.@X@X@X@X@XE n |.@X@X@X@X@X@X@X@X@X@X@X@X@X@X@X@X",
"@X@X@X@X@X@X@X@X@X@X@X@X@X@X@X@X@X@X1   x.@X@X@X@X@X,.l W @X@X@X@X@X@X@Xf   O.@X@X@X@X@X@XH S @X@X@X@X@X@X@X@X@X@X@X@X@X@X@X@X@X",
"@X@X@X@X@X@X@X@X@X@X@X@X@X@X@X@X@X@Xt   +.@X@X@X@X@X XS z a.@X@X@X@X@Xm.o 4 oX@X@X@X@X@X|.M W @X@X@X@X@X@X@X@X@X@X@X@X@X@X@X@X@X",
"@X@X@X@X@X@X@X@X@X@X@X@X@X@X@X@X@X@Xo.  y @X@X@X@X@X@XS.x C '.@X@X@X}.1 O B.@X@X@X@X@X@XD.x 5.@X@X@X@X@X@X@X@X@X@X@X@X@X@X@X@X@X",
"@X@X@X@X@X@X@X@X@X@X@X@X@X@X@X@X@X@XB.  & oX@X@X@X@X@X@X:.l T @X@X@Xp   O.@X@X@X@X@X@X@X>.x G.@X@X@X@X@X@X@X@X@X@X@X@X@X@X@X@X@X",
"@X@X@X@X@X@X@X@X@X@X@X@X@X@X@X@X@X@X@X1   k.@X@X@X@X@X@XXXU j <.@X+.  y @X@X@X@X@X@X@X@XJ Z OX@X@X@X@X@X@X@X@X@X@X@X@X@X@X@X@X@X",
"@X@X@X@X@X@X@X@X@X@X@X@X@X@X@X@X@X@X@Xo.  w @X@X@X@X@X@X@X'.S z G X 7 oX@X@X@X@X@X@X@Xh.l :.@X@X@X@X@X@X@X@X@X@X@X@X@X@X@X@X@X@X",
"@X@X@X@X@X@X@X@X@X@X@X@X@X@X@X@X@X@X@X{.$ X l.@X@X@X@X@X@X@XW.k . < (.@X@X@X@X@X@X@X@XP x _.@X@X@X@X@X@X@X@X@X@X@X@X@X@X@X@X@X@X",
"@X@X@X@X@X@X@X@X@X@X@X@X@X@X@X@X@X@X@X@X$.  ; /.@X@X@X@X@XOX| X = j 2.@X@X@X@X@X@X@X5.j <.@X@X@X@X@X@X@X@X@X@X@X@X@X@X@X@X@X@X@X",
"@X@X@X@X@X@X@X@X@X@X@X@X@X@X@X@X@X@X@X@X@Xd   , c.@X@X@Xx.7 X s I.P j T T.@X@X@X@X8.x U .X@X@X@X@X@X@X@X@X@X@X@X@X@X@X@X@X@X@X@X",
"@X@X@X@X@X@X@X@X@X@X@X@X@X@X@X@X@X@X@X@X@X@X .O X 3 r ,   4 k.@X@XOX7.M z T 5.3.J l W [.@X@X@X@X@X@X@X@X@X@X@X@X@X@X@X@X@X@X@X@X",
"@X@X@X@X@X@X@X@X@X@X@X@X@X@X@X@X@X@X@X@X@X@X@X/.#.} } O.B.@X@X@X@X@X@X|.y.( Y E ) g.@X@X@X@X@X@X@X@X@X@X@X@X@X@X@X@X@X@X@X@X@X@X",
"@X@X@X@X@X@X@X@X@X@X@X@X@X@X@X@X@X@X@X@X@X@X@X@X@X@X@X@X@X@X@X@X@X@X@X@X@X@X@X@X@X@X@X@X@X@X@X@X@X@X@X@X@X@X@X@X@X@X@X@X@X@X@X@X"
};
