/* XPM */
static char * openss7_xpm[] = {
"48 48 498 2",
"  	c None",
". 	c #FFFFFF",
"+ 	c #FEFEFE",
"@ 	c #FBFBFB",
"# 	c #F8F8F8",
"$ 	c #F8F9FD",
"% 	c #D6D8F2",
"& 	c #ACAFE4",
"* 	c #8A8FDA",
"= 	c #8187D7",
"- 	c #9499DD",
"; 	c #B3B6E7",
"> 	c #D4D6F1",
", 	c #F5F5FB",
"' 	c #F0F0F0",
") 	c #C7C7C7",
"! 	c #8F8F8F",
"~ 	c #5A5A5A",
"{ 	c #404040",
"] 	c #3F3F3F",
"^ 	c #595959",
"/ 	c #989898",
"( 	c #DCDCDC",
"_ 	c #D5D7F2",
": 	c #686FCF",
"< 	c #323BBF",
"[ 	c #2A34BC",
"} 	c #313ABF",
"| 	c #3841C1",
"1 	c #363FC0",
"2 	c #373FBF",
"3 	c #424BC4",
"4 	c #5D65CC",
"5 	c #A7ABE2",
"6 	c #F5F5FC",
"7 	c #F4F4F4",
"8 	c #999999",
"9 	c #373737",
"0 	c #151515",
"a 	c #101010",
"b 	c #1D1D1D",
"c 	c #303030",
"d 	c #2F2F2F",
"e 	c #1A1A1A",
"f 	c #0E0E0E",
"g 	c #1E1E1E",
"h 	c #878787",
"i 	c #F7F7F7",
"j 	c #BEC1EA",
"k 	c #333CBF",
"l 	c #2731BB",
"m 	c #5960CB",
"n 	c #C0C2EA",
"o 	c #F3F4FB",
"p 	c #FCFCFE",
"q 	c #DCDDF3",
"r 	c #9EA2E0",
"s 	c #5E66CC",
"t 	c #3D46C2",
"u 	c #4E56C7",
"v 	c #898CA9",
"w 	c #282828",
"x 	c #7C7C7C",
"y 	c #D3D3D3",
"z 	c #B3B3B3",
"A 	c #2D2D2D",
"B 	c #121212",
"C 	c #555555",
"D 	c #FAFAFA",
"E 	c #D1D3F0",
"F 	c #3039BD",
"G 	c #252EBA",
"H 	c #888EDA",
"I 	c #F7F7FC",
"J 	c #C1C4EB",
"K 	c #25295E",
"L 	c #030308",
"M 	c #07070C",
"N 	c #ECECEC",
"O 	c #3B3B3B",
"P 	c #161616",
"Q 	c #686868",
"R 	c #636ACE",
"S 	c #2C35BC",
"T 	c #6168CD",
"U 	c #F1F1F1",
"V 	c #4F4F4F",
"W 	c #0A0A0A",
"X 	c #13131F",
"Y 	c #2932A3",
"Z 	c #4C54C6",
"` 	c #EEEFF9",
" .	c #191919",
"..	c #BABABA",
"+.	c #BFC2EA",
"@.	c #2B35BD",
"#.	c #2932BC",
"$.	c #E5E6F7",
"%.	c #EAEAEA",
"&.	c #484848",
"*.	c #0D0D0D",
"=.	c #3C3C3C",
"-.	c #F6F6F6",
";.	c #B0B3E6",
">.	c #343DBF",
",.	c #4D54C7",
"'.	c #E0E1F5",
").	c #979797",
"!.	c #FAFAFD",
"~.	c #7F85D7",
"{.	c #323CBE",
"].	c #6B72D0",
"^.	c #FBFBFD",
"/.	c #4B4B4B",
"(.	c #0F0F0F",
"_.	c #434343",
":.	c #F3F3F3",
"<.	c #B8BBE8",
"[.	c #4048C3",
"}.	c #545BC9",
"|.	c #DDDFF4",
"1.	c #F2F2F2",
"2.	c #242424",
"3.	c #D1D1D1",
"4.	c #E7E8F7",
"5.	c #444DC4",
"6.	c #2F39BE",
"7.	c #BBBEE9",
"8.	c #535353",
"9.	c #EBEBEB",
"0.	c #ADB1E5",
"a.	c #434CC4",
"b.	c #5961CA",
"c.	c #EAEAF8",
"d.	c #626262",
"e.	c #2E2E2E",
"f.	c #A3A3A3",
"g.	c #D8DAF3",
"h.	c #313ABE",
"i.	c #333DBF",
"j.	c #DCDDF4",
"k.	c #636363",
"l.	c #0B0B0B",
"m.	c #252525",
"n.	c #E3E3E3",
"o.	c #9CA0DF",
"p.	c #9C9C9C",
"q.	c #292929",
"r.	c #3039BE",
"s.	c #424BC3",
"t.	c #838383",
"u.	c #060606",
"v.	c #D9D9D9",
"w.	c #7E83D6",
"x.	c #3E46C2",
"y.	c #6F76D1",
"z.	c #C2C2C2",
"A.	c #272727",
"B.	c #5F5F5F",
"C.	c #A9ACE3",
"D.	c #565EC9",
"E.	c #EFEFFA",
"F.	c #BCBCBC",
"G.	c #020202",
"H.	c #B7B7B7",
"I.	c #4F57C8",
"J.	c #3A43C1",
"K.	c #A0A4E1",
"L.	c #525252",
"M.	c #9A9DDD",
"N.	c #3C45C0",
"O.	c #6970CF",
"P.	c #353535",
"Q.	c #6E6E6E",
"R.	c #EAEBF8",
"S.	c #2F38BE",
"T.	c #3B43C1",
"U.	c #D9DAF3",
"V.	c #D5D5D5",
"W.	c #333333",
"X.	c #4A4A4A",
"Y.	c #E6E6E6",
"Z.	c #9FA4E0",
"`.	c #5259C8",
" +	c #797DD3",
".+	c #B2B5E6",
"++	c #424AC1",
"@+	c #686FCE",
"#+	c #F7F8FC",
"$+	c #D7D7D7",
"%+	c #363636",
"&+	c #E5E5E5",
"*+	c #B6BAE7",
"=+	c #777DD4",
"-+	c #8F94DA",
";+	c #F4F4FB",
">+	c #1F1F1F",
",+	c #131313",
"'+	c #6269CD",
")+	c #B7BBE7",
"!+	c #3E3E3E",
"~+	c #4E4E4E",
"{+	c #FDFDFE",
"]+	c #D4D5F0",
"^+	c #A0A5E0",
"/+	c #ADB0E4",
"(+	c #F5F5FA",
"_+	c #FDFDFD",
":+	c #3D3D3D",
"<+	c #6A6A6A",
"[+	c #DEDFF3",
"}+	c #878DD9",
"|+	c #969ADB",
"1+	c #F1F1F9",
"2+	c #DDDDDD",
"3+	c #5E5E5E",
"4+	c #696969",
"5+	c #E9EAF6",
"6+	c #C4C7EB",
"7+	c #C6C8EC",
"8+	c #E9E9E9",
"9+	c #898989",
"0+	c #767676",
"a+	c #D4D4D4",
"b+	c #C6C9EC",
"c+	c #AEB2E5",
"d+	c #D9DBF2",
"e+	c #939393",
"f+	c #9D9D9D",
"g+	c #F4F5FB",
"h+	c #D8D9F2",
"i+	c #D7D9F1",
"j+	c #F9F9FC",
"k+	c #EEEEF9",
"l+	c #CACDED",
"m+	c #CED1EE",
"n+	c #FBFBFC",
"o+	c #C3C3C3",
"p+	c #CDCDCD",
"q+	c #FCFCFC",
"r+	c #E1E2F4",
"s+	c #E0E1F4",
"t+	c #F8F8FB",
"u+	c #DADBF2",
"v+	c #DBDBDB",
"w+	c #E8E8E8",
"x+	c #EDEDED",
"y+	c #E5E6F6",
"z+	c #E3E4F5",
"A+	c #F7F7FB",
"B+	c #E7E7E7",
"C+	c #EEEEEE",
"D+	c #F6F6FB",
"E+	c #E2E3F5",
"F+	c #D2D2D2",
"G+	c #E1E1E1",
"H+	c #828282",
"I+	c #545454",
"J+	c #A9A9A9",
"K+	c #FCFCFD",
"L+	c #E8E9F6",
"M+	c #E3E5F5",
"N+	c #EDEEF4",
"O+	c #DEDEDE",
"P+	c #949494",
"Q+	c #575757",
"R+	c #959595",
"S+	c #E6E8F7",
"T+	c #E1E3F3",
"U+	c #939397",
"V+	c #4C4C4C",
"W+	c #888888",
"X+	c #C6C6C6",
"Y+	c #C1C1C1",
"Z+	c #C0C0C0",
"`+	c #BDBDBD",
" @	c #F5F5F5",
".@	c #000000",
"+@	c #040404",
"@@	c #9B9B9B",
"#@	c #EFF0F9",
"$@	c #E4E5F6",
"%@	c #E3E3E8",
"&@	c #DFDFDF",
"*@	c #848484",
"=@	c #262626",
"-@	c #313131",
";@	c #F3F3FA",
">@	c #8F919B",
",@	c #2A2A2A",
"'@	c #111111",
")@	c #1B1B1B",
"!@	c #D8D8D8",
"~@	c #B4B4B4",
"{@	c #DADADA",
"]@	c #C4C4C4",
"^@	c #030303",
"/@	c #E4E5EB",
"(@	c #CFD0DE",
"_@	c #ACACAD",
":@	c #CCCCCC",
"<@	c #B5B5B5",
"[@	c #9A9A9A",
"}@	c #CACACA",
"|@	c #B6B6B6",
"1@	c #A2A2A2",
"2@	c #C8C8C8",
"3@	c #37373B",
"4@	c #1C1C1C",
"5@	c #171717",
"6@	c #F9F9F9",
"7@	c #A5A5A5",
"8@	c #090909",
"9@	c #050505",
"0@	c #B9B9BB",
"a@	c #8E8F95",
"b@	c #181818",
"c@	c #202020",
"d@	c #A7A7A7",
"e@	c #797979",
"f@	c #070707",
"g@	c #666666",
"h@	c #B1B1B1",
"i@	c #313133",
"j@	c #818182",
"k@	c #8E8E8E",
"l@	c #494949",
"m@	c #CECECE",
"n@	c #010101",
"o@	c #88888B",
"p@	c #2E2E2F",
"q@	c #212121",
"r@	c #343434",
"s@	c #080808",
"t@	c #232323",
"u@	c #676767",
"v@	c #808182",
"w@	c #717171",
"x@	c #909090",
"y@	c #888989",
"z@	c #8A8A90",
"A@	c #444444",
"B@	c #8D8D8D",
"C@	c #616161",
"D@	c #4D4D4D",
"E@	c #585858",
"F@	c #222222",
"G@	c #858585",
"H@	c #808081",
"I@	c #727272",
"J@	c #AAAAAA",
"K@	c #858586",
"L@	c #9D9DA8",
"M@	c #F0F1F7",
"N@	c #2C2C2C",
"O@	c #565656",
"P@	c #B2B2B2",
"Q@	c #CFCFCF",
"R@	c #D0D0D1",
"S@	c #E5E5EF",
"T@	c #B1B1B7",
"U@	c #E4E4E4",
"V@	c #808089",
"W@	c #E6E7F6",
"X@	c #3A3A3A",
"Y@	c #383838",
"Z@	c #B0B0B0",
"`@	c #C5C5C5",
" #	c #EFEFEF",
".#	c #B9BAC6",
"+#	c #ECEDF8",
"@#	c #606060",
"##	c #787878",
"$#	c #818181",
"%#	c #7F7F7F",
"&#	c #232326",
"*#	c #81818C",
"=#	c #5B5B5B",
"-#	c #757575",
";#	c #515151",
">#	c #E0E0E0",
",#	c #6C6C6C",
"'#	c #141414",
")#	c #3B3C40",
"!#	c #797A81",
"~#	c #E2E2E2",
"{#	c #7E7E7E",
"]#	c #37373A",
"^#	c #29292C",
"/#	c #5D5D5D",
"(#	c #ACACAC",
"_#	c #646465",
":#	c #0B0B0C",
"<#	c #ABABAB",
"[#	c #505050",
"}#	c #CBCBCB",
"|#	c #A2A3A5",
"1#	c #AEAEBF",
"2#	c #B8B9CC",
"3#	c #B8B9C5",
"4#	c #B0B0BE",
"5#	c #D1D1D6",
"6#	c #7A7A7A",
"7#	c #DEE0F4",
"8#	c #CED0EF",
"9#	c #DFE1F4",
"0#	c #F0F0F9",
"a#	c #9297DC",
"b#	c #878CD8",
"c#	c #CDCFEE",
"d#	c #B9BCE8",
"e#	c #A4A4A4",
"f#	c #A3A6E1",
"g#	c #535AC8",
"h#	c #757CD3",
"i#	c #F1F2FA",
"j#	c #CCCEEE",
"k#	c #808080",
"l#	c #656565",
"m#	c #525AC9",
"n#	c #3C45C1",
"o#	c #ABADE2",
"p#	c #A2A7E0",
"q#	c #6C72D0",
"r#	c #BBBEE8",
"s#	c #B9BCE9",
"t#	c #323BBE",
"u#	c #333CBE",
"v#	c #E6E7F7",
"w#	c #959ADC",
"x#	c #5B63CC",
"y#	c #B5B8E6",
"z#	c #7B81D5",
"A#	c #535AC9",
"B#	c #B8B8B8",
"C#	c #868CD8",
"D#	c #575FCA",
"E#	c #4851C5",
"F#	c #2D37BD",
"G#	c #8086D7",
"H#	c #7076D2",
"I#	c #5C63CC",
"J#	c #C8CAED",
"K#	c #DADBF3",
"L#	c #353EC0",
"M#	c #2D36BD",
"N#	c #9CA1E0",
"O#	c #A6A6A6",
"P#	c #CDCFEF",
"Q#	c #313ABD",
"R#	c #A9ADE4",
"S#	c #E3E4F6",
"T#	c #3F48C3",
"U#	c #676ECF",
"V#	c #999DDE",
"W#	c #9297DD",
"X#	c #CFD2F0",
"Y#	c #3942C1",
"Z#	c #4851C6",
"`#	c #3B43C2",
" $	c #2A33BB",
".$	c #797DB5",
"+$	c #8C92DB",
"@$	c #4A52C6",
"#$	c #7F84D7",
"$$	c #CDCEDA",
"%$	c #2B2F65",
"&$	c #06071A",
"*$	c #13152F",
"=$	c #B4B5D2",
"-$	c #F9FAFD",
";$	c #B6B9E8",
">$	c #AFAFAF",
",$	c #5D5F82",
"'$	c #4049C3",
")$	c #676DCF",
"!$	c #EDEEF9",
"~$	c #E1E2F5",
"{$	c #848AD8",
"]$	c #555DCA",
"^$	c #E8E9F7",
"/$	c #969BDE",
"($	c #565ECA",
"_$	c #414AC3",
":$	c #3C44C1",
"<$	c #4149C4",
"[$	c #3D45C2",
"}$	c #4B53C6",
"|$	c #878BD8",
"1$	c #EBECF8",
"2$	c #F0F0FA",
"3$	c #CDD0EE",
"4$	c #AFB3E5",
"5$	c #959BDD",
"6$	c #8C91DA",
"7$	c #979CDE",
"8$	c #B4B7E6",
"9$	c #DFE0F4",
". . . . . . . . . . . . . . . + + . . . . . . . . . . . . @ # # @ . . . . . . . . . . . . . . . ",
". . . . . . . . . . . . $ % & * = - ; > , . . . . . ' ) ! ~ { ] ^ / ( . . . . . . . . . . . . . ",
". . . . . . . . . . . _ : < [ } | 1 2 3 4 5 6 . 7 8 9 0 a b c d e f g h i . . . . . . . . . . . ",
". . . . . . . . . . j k l m n o . p q r s t u v d a w x y + . . i z A B C D . . . . . . . . . . ",
". . . . . . . . . E F G H $ . . . . . . I J K L M h N . . . . . . . ' O P Q . . . . . . . . . . ",
". . . . . . . . $ R S T . . . . . . . . U V W X Y Z ` . . . . . . . . ' 0  .... . . . . . . . . ",
". . . . . . . . +.@.#.$.. . . . . . . %.&.*.=.-.;.>.,.'.. . . . . . . . ).b C . . . . . . . . . ",
". . . . . . . !.~.{.].^.. . . . . . N /.(._.:.. . <.[.}.|.. . . . . . . 1.2.c 3.. . . . . . . . ",
". . . . . . . 4.5.6.7.. . . . . . -.8.(.O 9.. . . . 0.a.b.c.. . . . . . D d.e.f.. . . . . . . . ",
". . . . . . . g.h.i.j.. . . . . . k.l.m.n.. . . . . . o.[.4 p . . . . . + p.q.x + . . . . . . . ",
". . . . . . . J r.s.4.. . . . . t.u.*.v.. . . . . . . . w.x.y.. . . . . . z.A.B.7 . . . . . . . ",
". . . . . . + C.k D.E.. . . . F.W G.H.. . . . . . . . . . I.J.K.. . . . . 3.e.L.9.. . . . . . . ",
". . . . . . p M.N.O.o . . . %.P.*.Q.. . . . . . . . . . . R.S.T.U.. . . . V.W.X.Y.. . . . . . . ",
". + . . + + p Z.`. +, . + + h (.w # . . . . . . . . . + . + .+++@+#++ + . $+%+&.&+. . . . . . . ",
"+ . . + + + p *+=+-+;+. + $+>+,+H.+ . . . . + . + . + . + + + w.'+)+. . . v.!+~+Y.. . . + . + + ",
". + . . . + {+]+^+/+(++ _+h :+<+-.. + + . + + + + + + . + . . [+}+|+1++ . 2+3+4+%.. . . . . . . ",
". . + + . + + 5+6+7+I + 8+9+0+a+. + . + + + + + + + + . + . + ^.b+c+d+{+. Y.e+f+7 + . . . + + . ",
". + + + + . + g+h+i+j+. 3...) + + . . . + + . + . + . . + . + . k+l+m+n++ 9.o+p+q++ . + . . + . ",
"+ + . . + + . j+r+s+t+i V.a+U + . . + . + . . . + . + . + . + + . '.u+` _+9.v+w+. . + . + + . . ",
"+ + . _+x+1.. !.y+z+A+B+2+&+. + . . + . + . + . . + . . . + C+C++ D+E+z+q+2+F+U . . + . + . . . ",
"+ . G+H+I+d.J+K+L+M+N+O+O+:.. + + + . + + . + + . + + . 7 P+~ Q+R+C+S+T+U+L.V+W+U . X+Y+Y+Z+`+ @",
". C+8..@q.+@W @@#@$@%@&@G+. + . . + . + . + . + + . . . *@.@=@-@.@P+;@>@.@e ,@.@9+. m.f '@)@f !@",
"+ ~@.@k.{@]@^@A /@(@_@:@e+Z+. . + <@[@$++ 7 }@G+|@1@x++ -@.@&@2@*.9 i 3@+@f.F.4@5@6@7@p.8 e.8@9.",
"@ Q.9@|@. . I+f 0@a@b@c@.@g d@+ e@'@.@,@X+v+d c@9@f@g@. A .@h@+ 8+n.. i@^@j@1.9.&@+ + . z.W k@q+",
"i l@>+m@. . W+n@1@o@^@p@F..@8.V.q@r@Y+.@g@a+g s@Y+t@e.B+u@.@9@e.f.@ + v@.@^@q.@@D . + 6@w@0 {@. ",
"i _.2.3.+ . x@.@@@y@.@z@D A@P.B@(.C@~@2._.F.e D@. E@F@y . G@ .^@.@d.1.' H@4@G..@V # . 2+4@g@7 . ",
"# E@,+]@. . I@f@J@K@.@L@M@^ N@x B s@f 5@O@H. .C . ^ 2.y N x+. P@>+l.!@Q@R@S@T@w .@U@. ...@f.+ + ",
"q+e+.@! + 1.m.e y t..@V@W@X@Y@).a 4+B+Z@`@}@b@8.+ ^ t@$+D@4@ #. C@.@!@l@q@.#+#@#.@v+q+##(.Y+. + ",
"+ v+b@5@$#E@.@B. #%#9@&#*#.@=#Y.m.A.p.c@-#Q@,+;#. C >+>#,#.@8.t.'#W.V.e@.@)#!#)@B :.i _.m.$++ + ",
"+ q+Z@d .@W @#~#%.{#^@]#u.^#z.+ 7@g G.=.m@O+] I@+ 0+&.2+w+/#8@.@e.(#O+V._#:#.@=@<#_+i [#~ w++ + ",
". . + 2+X+}#x+q+Y.{#.@|#1#2#g+. _+F+`@&@+ # v+&++ U@( i + N }#`@( &@v.' ' 3#4#5#_++ _+( >#q++ + ",
"+ + . . + + + D &@6#.@z 7#7+8#{++ . + + + . + + + . . . + . + . x+}@p+@ _+9#h+` . . . + . + + . ",
". . . . + . + 6@y W+P.X+0#a#b#h+. + . . . + + + + . . + + + . D F.d@( + ^.c#d#s++ + . . + + + + ",
". . + . + . . :.<@e#Y.. + f#g#h#i#. . . . . + . . + . + + . + F+e@). @. p *+-+j#+ . + . . . . . ",
". . + + . . . x+k#l#v.+ . 4.m#n#o#. + + . . + . . . + . + + 6@=#O@}@+ . p p#q#r#+ + . . . . + . ",
". . + + . + + Y.V W.p+. . + s#t#u#v#. . . + + + . + + . . . 6#9 $#+ . . ^.w#x#y#. . . . . + + . ",
". + + . + + . B+O 4@o+. . . . z#r.A#+ . . . . + . . . . . B#)@%+_+. + . !.C#D#<.+ . . . . . + . ",
". . . . . . + U /.4@J++ . . . i#E#F#G#. . . . . . . . . V.g t@O+. . . . $ H#I#J#. . + . . . . . ",
". . . . . . . _+##>+-#@ . . . . K#L#M#N#. . . . . . . ( Y@q.`+. . . . . I m#T 7#. . . . . . . . ",
". . . . . . . . O#>+O D . . . . . P#>.Q#R#. . . . . U@X.e.Z@. . . . . . S#T#U#p . . . . . . . . ",
". . . . . . . . $+2.'@( . . . . . . 8#L#< .+. . . C+V+e.<#. . . . . . . V#A#W#. . . . . . . . . ",
". . . . . . . . . k.)@l#. . . . . . . X#1 S.; . ' !+,@(#. . . . . . . . Y#Z#'.. . . . . . . . . ",
". . . . . . . . . a+'#f@:@. . . . . . . _ `# $.$=@w ... . . . . . . . +$@$#$. . . . . . . . . . ",
". . . . . . . . . . e+'@ .V.. . . . . . . $$%$&$*$=$-$. . . . . . . ;$J.@${+. . . . . . . . . . ",
". . . . . . . . . . . k@)@>+%#{@. . 9.>$Q.:+X@,$'$J.)$;.!$. . . ~${$'$]$$.. . . . . . . . . . . ",
". . . . . . . . . . . . z.L.q.t@2.q.-@!+C x@Y.. ^$/$($_$:$s.@$<$[$}$|$1$. . . . . . . . . . . . ",
". . . . . . . . . . . . . # a+h@7@O#z 3.:.. . . . . 2$3$4$5$6$7$8$9${+. . . . . . . . . . . . . ",
". . . . . . . . . . . . . . . . . . . . . . . . . . . . . + _+. . . . . . . . . . . . . . . . . "};
