/* XPM */
static char * ss7anal_xpm[] = {
"48 48 444 2",
"  	c None",
". 	c #FFFFFF",
"+ 	c #FEFEFE",
"@ 	c #E8E9F7",
"# 	c #C3C7ED",
"$ 	c #BFC1EC",
"% 	c #D5D7F1",
"& 	c #D9D9D9",
"* 	c #A1A1A1",
"= 	c #8A8A8A",
"- 	c #999999",
"; 	c #D4D4D4",
"> 	c #FFFFFE",
", 	c #9A9DDE",
"' 	c #2E39B7",
") 	c #272FBB",
"! 	c #4149C5",
"~ 	c #2733BB",
"{ 	c #424CC3",
"] 	c #C5C8EE",
"^ 	c #D3D3D3",
"/ 	c #505050",
"( 	c #0A0A0A",
"_ 	c #161616",
": 	c #515151",
"< 	c #1C1C1C",
"[ 	c #060606",
"} 	c #878787",
"| 	c #9FA5E1",
"1 	c #1520B7",
"2 	c #6B73D0",
"3 	c #FDFCFD",
"4 	c #F5F4FD",
"5 	c #7E82D7",
"6 	c #222CBA",
"7 	c #949ADF",
"8 	c #DCDCDB",
"9 	c #232323",
"0 	c #969696",
"a 	c #777777",
"b 	c #000000",
"c 	c #8E8E8E",
"d 	c #D1D4F0",
"e 	c #1B23B8",
"f 	c #6E75D3",
"g 	c #CCCDF4",
"h 	c #242D92",
"i 	c #100F12",
"j 	c #3E3E3A",
"k 	c #BBBBBA",
"l 	c #636363",
"m 	c #070707",
"n 	c #505AC8",
"o 	c #2E35BE",
"p 	c #E0E0F6",
"q 	c #CFCFCF",
"r 	c #131315",
"s 	c #000020",
"t 	c #686EBD",
"u 	c #FCFCFF",
"v 	c #F9F9F9",
"w 	c #080808",
"x 	c #767676",
"y 	c #D6D6F3",
"z 	c #2B36BC",
"A 	c #686FD0",
"B 	c #EFEFEF",
"C 	c #393939",
"D 	c #10100F",
"E 	c #CBCCE6",
"F 	c #2730BE",
"G 	c #A2A8E4",
"H 	c #7C7C7C",
"I 	c #262626",
"J 	c #A2A7E2",
"K 	c #1822B3",
"L 	c #C4C9EE",
"M 	c #6E6E6E",
"N 	c #020202",
"O 	c #C9C9C9",
"P 	c #AEB2E5",
"Q 	c #1E29B9",
"R 	c #C6C7ED",
"S 	c #D8D8D8",
"T 	c #DEDEDE",
"U 	c #FCFCFE",
"V 	c #7C80D6",
"W 	c #1F27B8",
"X 	c #FEFEFF",
"Y 	c #B3B3B3",
"Z 	c #7D7D7D",
"` 	c #6870D0",
" .	c #3540BA",
"..	c #ECEDFA",
"+.	c #ECECEC",
"@.	c #191919",
"#.	c #A6A6A6",
"$.	c #F6F6FC",
"%.	c #5C62CC",
"&.	c #4951C6",
"*.	c #F5F5F5",
"=.	c #222222",
"-.	c #F1F1F1",
";.	c #FCFCFD",
">.	c #2C34BE",
",.	c #8A8EDB",
"'.	c #F4F4F4",
").	c #3E3E3E",
"!.	c #6F6F6F",
"~.	c #F0F1FA",
"{.	c #4149C3",
"].	c #7075D3",
"^.	c #888888",
"/.	c #B7B7B7",
"(.	c #B6BBEA",
"_.	c #2832BD",
":.	c #E3E4F6",
"<.	c #FAFAFA",
"[.	c #595959",
"}.	c #484848",
"|.	c #ECEDF9",
"1.	c #2F3ABE",
"2.	c #8D92DA",
"3.	c #1B1B1B",
"4.	c #4E4E4E",
"5.	c #FFFEFE",
"6.	c #F5F6FC",
"7.	c #575EC9",
"8.	c #727AD4",
"9.	c #282828",
"0.	c #EAEAF8",
"a.	c #222BBB",
"b.	c #A0A1E3",
"c.	c #050505",
"d.	c #B7BBE8",
"e.	c #2A35BE",
"f.	c #7F7F7F",
"g.	c #E9EAF8",
"h.	c #1E28B6",
"i.	c #A4AAE2",
"j.	c #FCFCFC",
"k.	c #101010",
"l.	c #585858",
"m.	c #F8F8F8",
"n.	c #F9FAFC",
"o.	c #565DC9",
"p.	c #727BD3",
"q.	c #848484",
"r.	c #212EBA",
"s.	c #A9ADE2",
"t.	c #949494",
"u.	c #0D0D0D",
"v.	c #AFAFAF",
"w.	c #B5B9E7",
"x.	c #5057C7",
"y.	c #DBDCF3",
"z.	c #EBECF8",
"A.	c #4449C3",
"B.	c #ABB0E5",
"C.	c #373737",
"D.	c #3A3A3A",
"E.	c #6B71CF",
"F.	c #B2B5E7",
"G.	c #525252",
"H.	c #F3F3FA",
"I.	c #888CD8",
"J.	c #C0C3EB",
"K.	c #D2D2D2",
"L.	c #5B5B5B",
"M.	c #A3A3A3",
"N.	c #C8CCED",
"O.	c #A7ABE3",
"P.	c #F8F8FC",
"Q.	c #B4B4B4",
"R.	c #F9F9FC",
"S.	c #C3C6EB",
"T.	c #D6D8F1",
"U.	c #CBCBCB",
"V.	c #F6F6FB",
"W.	c #C0C3EA",
"X.	c #C4C4C4",
"Y.	c #FBFBFC",
"Z.	c #E1E3F5",
"`.	c #E6E6F7",
" +	c #FDFDFC",
".+	c #D5D5D5",
"++	c #FBFCFD",
"@+	c #FDFDFD",
"#+	c #DDDDDD",
"$+	c #E2E2E2",
"%+	c #FDFEFE",
"&+	c #EFF0F9",
"*+	c #ECEDF8",
"=+	c #E1E1E1",
"-+	c #F2F3FA",
";+	c #E7E8F7",
">+	c #E7E7E6",
",+	c #F5F5FB",
"'+	c #EFEFF9",
")+	c #F6F6F6",
"!+	c #EAEBF7",
"~+	c #F7F8FB",
"{+	c #E9E9E9",
"]+	c #F7F7FB",
"^+	c #F0F0F9",
"/+	c #EFEFF0",
"(+	c #FCFDFD",
"_+	c #EEEFF9",
":+	c #F1F1F8",
"<+	c #FBFBFB",
"[+	c #EDEDED",
"}+	c #121212",
"|+	c #E6E6E6",
"1+	c #969698",
"2+	c #E4E5ED",
"3+	c #BFBFBF",
"4+	c #252525",
"5+	c #E0E0E0",
"6+	c #222223",
"7+	c #C8C9D0",
"8+	c #F7F7F7",
"9+	c #989898",
"0+	c #1E1E1E",
"a+	c #212121",
"b+	c #EAEAEF",
"c+	c #C3C3C3",
"d+	c #202020",
"e+	c #8B8B8B",
"f+	c #606060",
"g+	c #D6D6D6",
"h+	c #2B2B2B",
"i+	c #A2A3A6",
"j+	c #D4D4D9",
"k+	c #646464",
"l+	c #2F2F2F",
"m+	c #3C3C3C",
"n+	c #707070",
"o+	c #C5C5C5",
"p+	c #747474",
"q+	c #19191A",
"r+	c #D7D7D9",
"s+	c #565656",
"t+	c #7E7E7E",
"u+	c #424242",
"v+	c #DFDFDF",
"w+	c #181818",
"x+	c #F1F1F3",
"y+	c #EAEAED",
"z+	c #F2F2F2",
"A+	c #B0B0B0",
"B+	c #444444",
"C+	c #DADADA",
"D+	c #F0F0F0",
"E+	c #2A2A2A",
"F+	c #B6B6B6",
"G+	c #CCCCCC",
"H+	c #1D1D1D",
"I+	c #EBEBEB",
"J+	c #737373",
"K+	c #797979",
"L+	c #C6C6C7",
"M+	c #3B3B3B",
"N+	c #9F9F9F",
"O+	c #DCDCDC",
"P+	c #B2B2B2",
"Q+	c #5D5D5D",
"R+	c #EAEAEB",
"S+	c #F4F5F6",
"T+	c #5A5A5A",
"U+	c #040404",
"V+	c #151515",
"W+	c #CECECE",
"X+	c #CACACA",
"Y+	c #C5C5C7",
"Z+	c #EEEEEE",
"`+	c #BABABA",
" @	c #A0A0A0",
".@	c #E9E9EA",
"+@	c #828285",
"@@	c #303030",
"#@	c #9B9B9B",
"$@	c #8F8F8F",
"%@	c #ABABAB",
"&@	c #787878",
"*@	c #4B4B4B",
"=@	c #C7C8CC",
"-@	c #111111",
";@	c #AEAEAE",
">@	c #666666",
",@	c #363636",
"'@	c #4F4F4F",
")@	c #494949",
"!@	c #A4A4A4",
"~@	c #C9C9CA",
"{@	c #0E0E0E",
"]@	c #4D4D4D",
"^@	c #4C4C4C",
"/@	c #AAAAAA",
"(@	c #5F5F5F",
"_@	c #CDCDCD",
":@	c #CCCDD2",
"<@	c #434343",
"[@	c #929292",
"}@	c #030303",
"|@	c #EAEAEA",
"1@	c #BABABC",
"2@	c #828282",
"3@	c #F4F4F9",
"4@	c #ECEEF9",
"5@	c #FDFDFE",
"6@	c #E3E3E3",
"7@	c #F6F6F7",
"8@	c #E6E8F7",
"9@	c #DADADB",
"0@	c #F9F9FB",
"a@	c #D9DAF2",
"b@	c #F0F1F9",
"c@	c #FBFCFE",
"d@	c #D8DAF2",
"e@	c #A9A9AA",
"f@	c #BFC1EB",
"g@	c #FAFAFE",
"h@	c #BDC1EA",
"i@	c #EAEAF7",
"j@	c #9D9D9D",
"k@	c #B5BAE7",
"l@	c #5E64CC",
"m@	c #E3E2F5",
"n@	c #E7E7E7",
"o@	c #F5F6FB",
"p@	c #9094DB",
"q@	c #D0D2F0",
"r@	c #717171",
"s@	c #DDDFF4",
"t@	c #454FC5",
"u@	c #7980D4",
"v@	c #696969",
"w@	c #5C5C5C",
"x@	c #6C74D0",
"y@	c #B6B9E6",
"z@	c #353535",
"A@	c #6166CB",
"B@	c #313DBB",
"C@	c #E4E5F7",
"D@	c #A2A2A2",
"E@	c #F4F4FC",
"F@	c #5860CB",
"G@	c #D8D8F2",
"H@	c #1720B5",
"I@	c #9598DF",
"J@	c #141414",
"K@	c #F4F5FB",
"L@	c #535BCB",
"M@	c #9EA3E2",
"N@	c #5F67CD",
"O@	c #434CC5",
"P@	c #F0F0FA",
"Q@	c #0C0C0C",
"R@	c #909090",
"S@	c #F3F3FB",
"T@	c #4C55C6",
"U@	c #ACB0E6",
"V@	c #6A6A6A",
"W@	c #D9DCF3",
"X@	c #1B25B8",
"Y@	c #A7AAE4",
"Z@	c #727273",
"`@	c #F1F1FA",
" #	c #BCC0E9",
".#	c #FBFBFE",
"+#	c #737AD5",
"@#	c #252DBC",
"##	c #F6F8FD",
"$#	c #BFBFC0",
"%#	c #2F38BF",
"&#	c #D4D7F1",
"*#	c #2D35BD",
"=#	c #6971D0",
"-#	c #E6E7F7",
";#	c #2831BC",
">#	c #9598DE",
",#	c #1D27B7",
"'#	c #BCBEEA",
")#	c #D1D1D1",
"!#	c #C6C9ED",
"~#	c #3C44C2",
"{#	c #EFF0FA",
"]#	c #5D66CE",
"^#	c #3840C2",
"/#	c #F4F5FC",
"(#	c #7B80D6",
"_#	c #686CCE",
":#	c #F9F9FD",
"<#	c #E4E4E4",
"[#	c #ECF0FA",
"}#	c #343EBC",
"|#	c #636ACE",
"1#	c #353534",
"2#	c #616161",
"3#	c #313ABF",
"4#	c #9EA4E2",
"5#	c #DBDBDB",
"6#	c #898989",
"7#	c #CFD2F5",
"8#	c #2D36B2",
"9#	c #2B2C3C",
"0#	c #4F4E49",
"a#	c #FCFCFB",
"b#	c #9CA1E0",
"c#	c #272FBA",
"d#	c #E4E6F7",
"e#	c #7A7A7A",
"f#	c #DBDBDD",
"g#	c #15151D",
"h#	c #000530",
"i#	c #5A62C7",
"j#	c #DDDEF5",
"k#	c #2934B6",
"l#	c #8C90DB",
"m#	c #464646",
"n#	c #C0C0C0",
"o#	c #E8E8E8",
"p#	c #E4E5F5",
"q#	c #3C46BF",
"r#	c #3D46C3",
"s#	c #C8C9ED",
"t#	c #F1F2FB",
"u#	c #F2F3FB",
"v#	c #DCDEF4",
"w#	c #4750C4",
"x#	c #5960CB",
"y#	c #858585",
"z#	c #414141",
"A#	c #C7C7C7",
"B#	c #979ADE",
"C#	c #4F58C7",
"D#	c #5B63CC",
"E#	c #666DD1",
"F#	c #4851C7",
"G#	c #898DDA",
"H#	c #F7F7FC",
"I#	c #F3F3F3",
"J#	c #F4F4FB",
"K#	c #EAEBF8",
". . . . . . . . . . . . . . . + + . . . . . + . . + + . . . . . . . . . . . . . . . . . . . . . ",
". . . . . . . . . . . . . . . . . @ # $ % . . . + . . & * = - ; . + . . . . . . . . . . . . . . ",
". . . . . . . . . . . . . . + > , ' ) ! ~ { ] . . ^ / ( _ : < [ } . + . . . . . . . . . . . . . ",
". . . . . . . . . . . . . . . | 1 2 3 . 4 5 6 7 8 9 [ 0 . . . a b c . . . . . . . . . . . . . . ",
". . . . . . . . . . . . + . d e f . . + . . g h i j k . . + . . l m ^ . . . . . . . . . . . . . ",
". . . . . . . . . . . . . . n o p . . . . . q r s t u + . . + . v w x + . . . . . . . . . . . . ",
". . . . . . . . . . . . . y z A . + . + . B C D E F G . . . . + . H I B + . . . . . . . . . . . ",
". . . . . . . . . . . . . J K L . . . + . M N O . P Q R . + . . . S b T . . . . . . . . . . . . ",
". . . . . . . . . . . . U V W X . . + . Y b Z + . . `  .... . . + +.@.#.. . . . . . . . . . . . ",
". . . . . . . . . . . . $.%.&.. + . . *.@.=.-.. . . ;.>.,.X + . . '.).!.. . . . . . . . . . . . ",
". . . . . . . . . . . . ~.{.].. . . + ^.b /.. + . + + (._.:.. . . <.[.}.. . . . . . . . . . . . ",
". . . . . . . . . . . . |.1.2.. . + B 3.4.+ . + + + 5.6.7.8.+ + . + M 9.. . . . . . . . . . . . ",
". . . . . + + . . . . . 0.a.b.. + . 0 c.S . + . . + . . d.e.p . + . f.@.. . . . . . . . . . . . ",
". . . + + . + + + . . . g.h.i.. . j.k.l.m.+ . . + + + + n.o.p.+ + . q.3.+ + + . . . . . . . . . ",
". . . . . . . . . . . + g.r.s.. . t.u.v.+ + + + + + + + . w.x.y.. + c 9 . . + + . + . + . + . . ",
". + + + . . . . + + + . z.A.B.+ . C.D.*.+ + + + . + + . . . E.F.+ + * G.. + + . + + + + + + . + ",
"+ + + + . + + . . . . . H.I.J.+ K.L.M.+ + . . + + + . . + + N.O.P.+ Q.} . + + . . + . + + . . . ",
"+ . + + . . + . + . + . R.S.T.. U.0 *.+ + . . . + . + + . + V.W.H.j.q X.. + . + + . + + + . . + ",
". + + + . + + + . + + + Y.Z.`. +.+K.+ + + + . + . + . . . + ++:.@ @+#+$+. + + + + + + . . . + . ",
". . . . . . . + + + . + %+&+*+<.=+'.. . . + . + . . + . + + + -+;+@+>+-.. + . . . . + + . + . . ",
". + . . + . + . + + + + + ,+'+)++.j.+ + . . . + . . + . + . . R.!+~+{+m.+ . . + . . . + + . . + ",
"+ + . + . + . + + + . + + ]+^+/+-.@+. . . . . . . . + . . . @+(+_+:+{+<++ . + + . + + + . + + . ",
"+ + + . + + [+}+w |++ +.b 1+2+b 3++ -.4+b 5++ + b v.. q b !.+ a 6+7+b b b b 8+b b b b 9+. + + . ",
"+ + . . + + v.0+a+* . +.b D.b+b c+. X.d+d+e+. @+b Y . . f+b g+h+i+j+[.k+l+d+. b m+n+!.o++ . . . ",
". . . . + + M k+p+L.@+[+b q+r+b o++ = s+t+u+@++ b Y . + v+b h+w+x+y+z+v a+A+. b I B+: C++ + + . ",
". . . . . D+E+F+G+H+I++.b J+K+b L+<+M+N+O+k.O++ b P++ + . M b Q+<+R+S+C.T+. + b N U+V+U.+ . . + ",
"+ . + . . #+b b b b W+[+b X+9 b Y+Z+b b b b F++ b `+. + . <.b  @8+.@+@@@. . + b #@+ . . + . . + ",
"+ . . . . $@H+#.%@h+&@-.b S *@b =@#@-@N+;@D.>@+ b ,@'@)@o++ b !@-.~@{@l+G.]@. b h+'@^@/@+ . . + ",
". . + + + E+(@@+. x {@)+b _@v.b :@E+<@<+. [@}@. b b b b /@. b * |@1@b b b b <.b b b b 2@+ + + . ",
"+ . + . . . . + + + . + + )+I+3@4@5@+ + + + + . . . + + . + . 8+6@7@8@+++ + + . . + . . . + . . ",
"+ + + . . . . . + . . + + [+9@0@a@b@+ + . + . + . . . + . + + |+g+c@d@P.+ + . + . . . . . + . . ",
"+ + . + + . + . . . . . @+W+e@+ f@w.. + + + . + . . + + + + v ;@; g@h@i@+ . + + + + . . . . + . ",
". + + . + . . + . + + + <.j@!.. k@l@m@. . + . . + . . . . . v+/ n@o@p@q@+ . . . . + + . + . . . ",
". . . + . + . + + . + . m.r@)@+ s@t@u@+ + . . + . . + + + . v@w@)+,+x@y@. + . + . + . + + + . . ",
". . . . . . . + + . . + m.L.z@. + A@B@C@. + . . . . . . . n@c.D@+ E@F@J + . + + + . + + . + . . ",
". . . . . . . . . . . . m.G.E+. . G@H@I@. . . . . . . + . f+J@*.. K@L@M@+ . + . + . + . . . . . ",
". . . . . . . . . . . . <.w@d+. + . N@O@P@. . . . . . . & Q@R@. + S@T@U@. . . . . . . . . . . . ",
". . . . . . . . . . . . @+V@u.. + . W@X@Y@. + . . . + @+Z@6+. . . `@{. #. . . . . . . . . . . . ",
". . . . . . . . . . . . . t+b . . + .#+#@###. . . . . |+c.$#. + . |.%#% . . . . . . . . . . . . ",
". . . . . . . . . . . . . N+b .+. . . &#*#=#. . + . . '@4.m.+ . . -#;#g.+ . . . . . . . . . . . ",
". . . . . . . . . . . . . c+m 9+. + X . >#,#'#. + . - U+)#. . . . !#~#{#. . . . . . . . . . . . ",
". . . . . . . . . . . . . '.V+<@. . + . . ]#^#/#. _@m - . . . . . (#_#:#. . . . . . . . . . . . ",
". . . . . . . . . . . . + . T+k.<#. . . 5.[#}#|#I+1#2#. + . . . . 3#4#. . . . . . . . . . . . . ",
". . . . . . . . . . . . . . 5#b 6#. + . + . 7#8#9#0#a#+ . . + . b#c#d#. . . . . . . . . . . . . ",
". . . . . . . . . . . . . . . e#}@5+. + + . f#g#h#i#+ . + . . j#k#l#. . . . . . . . . . . . . . ",
". . . . . . . . . . . . . . + 8+m#-@n#+.o##@V+p+p#q#r#s#t#u#v#w#x#. > . . . . . . . . . . . . . ",
". . . . . . . . . . . . . . . . -.y#z#s+: >@A#. . `@B#C#D#E#F#G#H#. + . . . . . . . . . . . . . ",
". . . . . . . . . . . . . . . + . . *.D+I#+ . . + . . J#z.K#{#5@. + . . . . . . . . . . . . . . "};
