/* XPM */
static char * logo8_xpm[] = {
"48 48 499 2",
"  	c None",
". 	c #FFFFFF",
"+ 	c #FEFEFE",
"@ 	c #FBFBFB",
"# 	c #F8F8F8",
"$ 	c #F8F9FD",
"% 	c #D6D8F2",
"& 	c #ACAFE4",
"* 	c #8A8FDA",
"= 	c #8187D7",
"- 	c #9499DD",
"; 	c #B3B6E7",
"> 	c #D4D6F1",
", 	c #F5F5FB",
"' 	c #F0F0F0",
") 	c #C7C7C7",
"! 	c #8F8F8F",
"~ 	c #5A5A5A",
"{ 	c #404040",
"] 	c #3F3F3F",
"^ 	c #595959",
"/ 	c #989898",
"( 	c #DCDCDC",
"_ 	c #D5D7F2",
": 	c #686FCF",
"< 	c #323BBF",
"[ 	c #2A34BC",
"} 	c #313ABF",
"| 	c #3841C1",
"1 	c #363FC0",
"2 	c #373FBF",
"3 	c #424BC4",
"4 	c #5D65CC",
"5 	c #A7ABE2",
"6 	c #F5F5FC",
"7 	c #F4F4F4",
"8 	c #999999",
"9 	c #373737",
"0 	c #151515",
"a 	c #101010",
"b 	c #1D1D1D",
"c 	c #303030",
"d 	c #2F2F2F",
"e 	c #1A1A1A",
"f 	c #0E0E0E",
"g 	c #1E1E1E",
"h 	c #878787",
"i 	c #F7F7F7",
"j 	c #BEC1EA",
"k 	c #333CBF",
"l 	c #2731BB",
"m 	c #5960CB",
"n 	c #C0C2EA",
"o 	c #F3F4FB",
"p 	c #FCFCFE",
"q 	c #DCDDF3",
"r 	c #9EA2E0",
"s 	c #5E66CC",
"t 	c #3D46C2",
"u 	c #4E56C7",
"v 	c #898CA9",
"w 	c #282828",
"x 	c #7C7C7C",
"y 	c #D3D3D3",
"z 	c #B3B3B3",
"A 	c #2D2D2D",
"B 	c #121212",
"C 	c #555555",
"D 	c #FAFAFA",
"E 	c #D1D3F0",
"F 	c #3039BD",
"G 	c #252EBA",
"H 	c #888EDA",
"I 	c #F7F7FC",
"J 	c #C1C4EB",
"K 	c #25295E",
"L 	c #030308",
"M 	c #07070C",
"N 	c #ECECEC",
"O 	c #3B3B3B",
"P 	c #161616",
"Q 	c #686868",
"R 	c #636ACE",
"S 	c #2C35BC",
"T 	c #6168CD",
"U 	c #F1F1F1",
"V 	c #4F4F4F",
"W 	c #0A0A0A",
"X 	c #13131F",
"Y 	c #2932A3",
"Z 	c #4C54C6",
"` 	c #EEEFF9",
" .	c #191919",
"..	c #BABABA",
"+.	c #BFC2EA",
"@.	c #2B35BD",
"#.	c #2932BC",
"$.	c #E5E6F7",
"%.	c #EAEAEA",
"&.	c #484848",
"*.	c #0D0D0D",
"=.	c #3C3C3C",
"-.	c #F6F6F6",
";.	c #B0B3E6",
">.	c #343DBF",
",.	c #4D54C7",
"'.	c #E0E1F5",
").	c #979797",
"!.	c #FAFAFD",
"~.	c #7F85D7",
"{.	c #323CBE",
"].	c #6B72D0",
"^.	c #FBFBFD",
"/.	c #4B4B4B",
"(.	c #0F0F0F",
"_.	c #434343",
":.	c #F3F3F3",
"<.	c #B8BBE8",
"[.	c #4048C3",
"}.	c #545BC9",
"|.	c #DDDFF4",
"1.	c #F2F2F2",
"2.	c #242424",
"3.	c #D1D1D1",
"4.	c #E7E8F7",
"5.	c #444DC4",
"6.	c #2F39BE",
"7.	c #BBBEE9",
"8.	c #535353",
"9.	c #EBEBEB",
"0.	c #ADB1E5",
"a.	c #434CC4",
"b.	c #5961CA",
"c.	c #EAEAF8",
"d.	c #626262",
"e.	c #2E2E2E",
"f.	c #A3A3A3",
"g.	c #D8DAF3",
"h.	c #313ABE",
"i.	c #333DBF",
"j.	c #DCDDF4",
"k.	c #636363",
"l.	c #0B0B0B",
"m.	c #252525",
"n.	c #E3E3E3",
"o.	c #9CA0DF",
"p.	c #9C9C9C",
"q.	c #292929",
"r.	c #3039BE",
"s.	c #424BC3",
"t.	c #838383",
"u.	c #060606",
"v.	c #D9D9D9",
"w.	c #7E83D6",
"x.	c #3E46C2",
"y.	c #6F76D1",
"z.	c #C2C2C2",
"A.	c #272727",
"B.	c #5F5F5F",
"C.	c #A9ACE3",
"D.	c #565EC9",
"E.	c #EFEFFA",
"F.	c #BCBCBC",
"G.	c #020202",
"H.	c #B7B7B7",
"I.	c #4F57C8",
"J.	c #3A43C1",
"K.	c #A0A4E1",
"L.	c #525252",
"M.	c #9A9DDD",
"N.	c #3C45C0",
"O.	c #6970CF",
"P.	c #353535",
"Q.	c #6E6E6E",
"R.	c #EAEBF8",
"S.	c #2F38BE",
"T.	c #3B43C1",
"U.	c #D9DAF3",
"V.	c #D5D5D5",
"W.	c #333333",
"X.	c #4A4A4A",
"Y.	c #E6E6E6",
"Z.	c #9FA4E0",
"`.	c #5259C8",
" +	c #797DD3",
".+	c #B2B5E6",
"++	c #424AC1",
"@+	c #686FCE",
"#+	c #F7F8FC",
"$+	c #D7D7D7",
"%+	c #363636",
"&+	c #E5E5E5",
"*+	c #B6BAE7",
"=+	c #777DD4",
"-+	c #8F94DA",
";+	c #F4F4FB",
">+	c #1F1F1F",
",+	c #131313",
"'+	c #6269CD",
")+	c #B7BBE7",
"!+	c #3E3E3E",
"~+	c #4E4E4E",
"{+	c #FDFDFE",
"]+	c #D4D5F0",
"^+	c #A0A5E0",
"/+	c #ADB0E4",
"(+	c #F5F5FA",
"_+	c #FDFDFD",
":+	c #3D3D3D",
"<+	c #6A6A6A",
"[+	c #DEDFF3",
"}+	c #878DD9",
"|+	c #969ADB",
"1+	c #F1F1F9",
"2+	c #DDDDDD",
"3+	c #5E5E5E",
"4+	c #696969",
"5+	c #E9EAF6",
"6+	c #C4C7EB",
"7+	c #C6C8EC",
"8+	c #E9E9E9",
"9+	c #898989",
"0+	c #767676",
"a+	c #D4D4D4",
"b+	c #C6C9EC",
"c+	c #AEB2E5",
"d+	c #D9DBF2",
"e+	c #939393",
"f+	c #9D9D9D",
"g+	c #F4F5FB",
"h+	c #D8D9F2",
"i+	c #D7D9F1",
"j+	c #F9F9FC",
"k+	c #EEEEF9",
"l+	c #CACDED",
"m+	c #CED1EE",
"n+	c #FBFBFC",
"o+	c #C3C3C3",
"p+	c #CDCDCD",
"q+	c #FCFCFC",
"r+	c #E1E2F4",
"s+	c #E0E1F4",
"t+	c #F8F8FB",
"u+	c #DADBF2",
"v+	c #DBDBDB",
"w+	c #E8E8E8",
"x+	c #D8D9E8",
"y+	c #D0D1E0",
"z+	c #F3F3F7",
"A+	c #E7E7E7",
"B+	c #F6F6FB",
"C+	c #E2E3F5",
"D+	c #E3E4F5",
"E+	c #E2E2E2",
"F+	c #4C4C51",
"G+	c #3D3D42",
"H+	c #68686B",
"I+	c #DEDEDE",
"J+	c #A7A7A7",
"K+	c #575757",
"L+	c #666666",
"M+	c #D0D0D0",
"N+	c #B4B4B4",
"O+	c #B2B2B2",
"P+	c #E6E8F7",
"Q+	c #E3E5F5",
"R+	c #F3F3F9",
"S+	c #E4E4E4",
"T+	c #C4C4C4",
"U+	c #D2D2D2",
"V+	c #AEAEAE",
"W+	c #19191A",
"X+	c #45464B",
"Y+	c #000000",
"Z+	c #D6D6D6",
"`+	c #CCCCCC",
" @	c #4C4C4C",
".@	c #454545",
"+@	c #F9F9F9",
"@@	c #080808",
"#@	c #0C0C0C",
"$@	c #8D8D8D",
"%@	c #F3F3FA",
"&@	c #E4E6F6",
"*@	c #E5E6F3",
"=@	c #E1E1E1",
"-@	c #4D4D4D",
";@	c #A6A7AB",
">@	c #CFD0DE",
",@	c #414142",
"'@	c #818181",
")@	c #E0E0E0",
"!@	c #B5B5B5",
"~@	c #EEEEEE",
"{@	c #B9B9B9",
"]@	c #CECECE",
"^@	c #BEBEBE",
"/@	c #767680",
"(@	c #B5B6BE",
"_@	c #E1E1E2",
":@	c #C8C8C8",
"<@	c #656566",
"[@	c #E3E4EF",
"}@	c #DDDDDE",
"|@	c #7E7E7E",
"1@	c #DFDFDF",
"2@	c #969696",
"3@	c #B3B3B4",
"4@	c #ACACAC",
"5@	c #09090A",
"6@	c #626263",
"7@	c #C5C5C8",
"8@	c #050505",
"9@	c #646464",
"0@	c #A9A9A9",
"a@	c #C0C0C0",
"b@	c #A8A8A8",
"c@	c #2B2B2B",
"d@	c #A8A9AB",
"e@	c #424243",
"f@	c #2A2A2A",
"g@	c #EFEFEF",
"h@	c #BDBDBD",
"i@	c #494949",
"j@	c #171818",
"k@	c #1E1E1F",
"l@	c #090909",
"m@	c #DADADA",
"n@	c #323232",
"o@	c #7A7A7A",
"p@	c #444444",
"q@	c #9A9A9A",
"r@	c #232324",
"s@	c #111111",
"t@	c #F8F8FC",
"u@	c #C9C9C9",
"v@	c #C6C6C7",
"w@	c #AAABAF",
"x@	c #5C5C5C",
"y@	c #010101",
"z@	c #6C6C6C",
"A@	c #C1C1C1",
"B@	c #464646",
"C@	c #2C2C2C",
"D@	c #343434",
"E@	c #444447",
"F@	c #707070",
"G@	c #9B9B9B",
"H@	c #808081",
"I@	c #A7A8B3",
"J@	c #909090",
"K@	c #808080",
"L@	c #929292",
"M@	c #939394",
"N@	c #8B8B94",
"O@	c #ECEDF8",
"P@	c #111113",
"Q@	c #BEBFCE",
"R@	c #D6D6DA",
"S@	c #BFBFBF",
"T@	c #777777",
"U@	c #232323",
"V@	c #030303",
"W@	c #65666D",
"X@	c #E8E9F6",
"Y@	c #181818",
"Z@	c #A1A1A1",
"`@	c #313131",
" #	c #A4A5AE",
".#	c #E1E2F3",
"+#	c #E7E8F6",
"@#	c #AAAAAA",
"##	c #959595",
"$#	c #505050",
"%#	c #9F9F9F",
"&#	c #545455",
"*#	c #CACAD8",
"=#	c #8F8F90",
"-#	c #222222",
";#	c #858585",
">#	c #D8D8D8",
",#	c #F7F8FB",
"'#	c #DDDEF3",
")#	c #F5F5F5",
"!#	c #E4E5F6",
"~#	c #DEE0F4",
"{#	c #CED0EF",
"]#	c #EDEDED",
"^#	c #CACACA",
"/#	c #DFE1F4",
"(#	c #F0F0F9",
"_#	c #9297DC",
":#	c #878CD8",
"<#	c #CDCFEE",
"[#	c #B9BCE8",
"}#	c #A4A4A4",
"|#	c #A3A6E1",
"1#	c #535AC8",
"2#	c #757CD3",
"3#	c #F1F2FA",
"4#	c #797979",
"5#	c #CCCEEE",
"6#	c #656565",
"7#	c #525AC9",
"8#	c #3C45C1",
"9#	c #ABADE2",
"0#	c #5B5B5B",
"a#	c #565656",
"b#	c #A2A7E0",
"c#	c #6C72D0",
"d#	c #BBBEE8",
"e#	c #B9BCE9",
"f#	c #323BBE",
"g#	c #333CBE",
"h#	c #E6E7F7",
"i#	c #959ADC",
"j#	c #5B63CC",
"k#	c #B5B8E6",
"l#	c #1C1C1C",
"m#	c #7B81D5",
"n#	c #535AC9",
"o#	c #B8B8B8",
"p#	c #1B1B1B",
"q#	c #868CD8",
"r#	c #575FCA",
"s#	c #4851C5",
"t#	c #2D37BD",
"u#	c #8086D7",
"v#	c #7076D2",
"w#	c #5C63CC",
"x#	c #C8CAED",
"y#	c #787878",
"z#	c #757575",
"A#	c #DADBF3",
"B#	c #353EC0",
"C#	c #2D36BD",
"D#	c #9CA1E0",
"E#	c #383838",
"F#	c #A6A6A6",
"G#	c #CDCFEF",
"H#	c #313ABD",
"I#	c #A9ADE4",
"J#	c #B0B0B0",
"K#	c #E3E4F6",
"L#	c #3F48C3",
"M#	c #676ECF",
"N#	c #ABABAB",
"O#	c #999DDE",
"P#	c #9297DD",
"Q#	c #CFD2F0",
"R#	c #3942C1",
"S#	c #4851C6",
"T#	c #141414",
"U#	c #070707",
"V#	c #3B43C2",
"W#	c #2A33BB",
"X#	c #797DB5",
"Y#	c #262626",
"Z#	c #8C92DB",
"`#	c #4A52C6",
" $	c #7F84D7",
".$	c #CDCEDA",
"+$	c #2B2F65",
"@$	c #06071A",
"#$	c #13152F",
"$$	c #B4B5D2",
"%$	c #F9FAFD",
"&$	c #B6B9E8",
"*$	c #8E8E8E",
"=$	c #7F7F7F",
"-$	c #AFAFAF",
";$	c #3A3A3A",
">$	c #5D5F82",
",$	c #4049C3",
"'$	c #676DCF",
")$	c #EDEEF9",
"!$	c #E1E2F5",
"~$	c #848AD8",
"{$	c #555DCA",
"]$	c #E8E9F7",
"^$	c #969BDE",
"/$	c #565ECA",
"($	c #414AC3",
"_$	c #3C44C1",
":$	c #4149C4",
"<$	c #3D45C2",
"[$	c #4B53C6",
"}$	c #878BD8",
"|$	c #EBECF8",
"1$	c #B1B1B1",
"2$	c #A5A5A5",
"3$	c #F0F0FA",
"4$	c #CDD0EE",
"5$	c #AFB3E5",
"6$	c #959BDD",
"7$	c #8C91DA",
"8$	c #979CDE",
"9$	c #B4B7E6",
"0$	c #DFE0F4",
". . . . . . . . . . . . . . . + + . . . . . . . . . . . . @ # # @ . . . . . . . . . . . . . . . ",
". . . . . . . . . . . . $ % & * = - ; > , . . . . . ' ) ! ~ { ] ^ / ( . . . . . . . . . . . . . ",
". . . . . . . . . . . _ : < [ } | 1 2 3 4 5 6 . 7 8 9 0 a b c d e f g h i . . . . . . . . . . . ",
". . . . . . . . . . j k l m n o . p q r s t u v d a w x y + . . i z A B C D . . . . . . . . . . ",
". . . . . . . . . E F G H $ . . . . . . I J K L M h N . . . . . . . ' O P Q . . . . . . . . . . ",
". . . . . . . . $ R S T . . . . . . . . U V W X Y Z ` . . . . . . . . ' 0  .... . . . . . . . . ",
". . . . . . . . +.@.#.$.. . . . . . . %.&.*.=.-.;.>.,.'.. . . . . . . . ).b C . . . . . . . . . ",
". . . . . . . !.~.{.].^.. . . . . . N /.(._.:.. . <.[.}.|.. . . . . . . 1.2.c 3.. . . . . . . . ",
". . . . . . . 4.5.6.7.. . . . . . -.8.(.O 9.. . . . 0.a.b.c.. . . . . . D d.e.f.. . . . . . . . ",
". . . . . . . g.h.i.j.. . . . . . k.l.m.n.. . . . . . o.[.4 p . . . . . + p.q.x + . . . . . . . ",
". . . . . . . J r.s.4.. . . . . t.u.*.v.. . . . . . . . w.x.y.. . . . . . z.A.B.7 . . . . . . . ",
". . . . . . + C.k D.E.. . . . F.W G.H.. . . . . . . . . . I.J.K.. . . . . 3.e.L.9.. . . . . . . ",
". . . . . . p M.N.O.o . . . %.P.*.Q.. . . . . . . . . . . R.S.T.U.. . . . V.W.X.Y.. . . . . . . ",
". + . . + + p Z.`. +, . + + h (.w # . . . . . . . . . + . + .+++@+#++ + . $+%+&.&+. . . . . . . ",
"+ . . + + + p *+=+-+;+. + $+>+,+H.+ . . . . + . + . + . + + + w.'+)+. . . v.!+~+Y.. . . + . + + ",
". + . . . + {+]+^+/+(++ _+h :+<+-.. + + . + + + + + + . + . . [+}+|+1++ . 2+3+4+%.. . . . . . . ",
". . + + . + + 5+6+7+I + 8+9+0+a+. + . + + + + + + + + . + . + ^.b+c+d+{+. Y.e+f+7 + . . . + + . ",
". + + + + . + g+h+i+j+. 3...) + + . . . + + . + . + . . + . + . k+l+m+n++ 9.o+p+q++ . + . . + . ",
"+ + . . + + . j+r+s+t+i V.a+U + . . + . + . . . + . + . + . + + . '.u+` _+9.v+w+. . + . + + . . ",
"+ + . . . + . !.x+y+z+A+2+&+. :.8+@ + . + . + . . + . . . + + + + B+C+D+q+%.E+U . . + . + . . . ",
"+ . + + . + + / F+G+H+F.I+:.J+K+_.L+V.+ M+N+N+N+O+v++ . . + . . + + P+Q+R+S+S+T+U+. + . . + . . ",
". + + + + + V+W W+X+Y+V Z+`+*.(. @G..@+@k.G.@@(.#@$@. . + + + + + . %@&@*@=@&+W.-@. . . . + + . ",
"+ . + . . . B.Y+;@>@,@Y+`+'@Y+h +@C Y+)@M+!@F.d.Y+T+~@{@]@p.f.@ + . ^@/@(@_@:@l.g a++ + + . + + ",
". . . . . . B.Y+<@[@}@Z+@ |@Y+~+_+. 7 _++ . 1@W.L.7 o+Y+*.Y+Y+2@+ f.Y+Y+G.3@3+Y+Y+<+. . + + . + ",
"+ . + . . . 4@(.Y+5@6@7@. U+8@Y+@@9@( + . + 0@Y+H.+ a@Y+] b@,+V .  .c@d@b e@N B f@g@+ . + + + . ",
"+ . . + + . . h@i@j@Y+k@$+. 3.8.b Y+l@m@+ U -@n@=@+ a@Y+o@9.f@p@' Y+n@q@r@s@t@B d + . + . + + . ",
"+ + + + . . Z+u@# v@ @Y+w@I+u@+@~@x@Y+).. =@y@z@+ + A@Y+x w+f@B@Y.Y+a C@D@E@1+,+e.@ . . + . + + ",
"+ . . + + + F@a G@=@H@Y+I@J@B K@. L@Y+).+ ..Y+L@+ + a@Y+x A+f@.@# Y+!+a+M@N@O@,+n@. . + . + . + ",
"+ . . + + + F.Y+0 _.0 P@Q@R@Y+#@-@b Y+y + t.Y+4@. + S@Y+T@A+U@!++ L.V@B@f W@X@Y@u.Z@+ . + + + + ",
"+ + + + + . + b@q.l@`@ #.#+#..D@W C@@#@ . ##$#]@+ . 3.{ %#g@d.T@+ v.!+l.&#*#+#=#-#;#+ + . + + + ",
". . . . . . + @ 1@>#%.,#'#u+g+# )#i + + + q++@+ + + _+# @ . D D . =@y A+i 4.!#R+-.D + + + . + + ",
"+ + . . + + + D 1@( :.. ~#7+{#{++ . + + + . + + + . . . + . + . ]#^#p+@ _+/#h+` . . . + . + + . ",
". . . . + . + +@y `+' . (#_#:#h+. + . . . + + + + . . + + + . D F.J+( + ^.<#[#s++ + . . + + + + ",
". . + . + . . :.!@}#Y.. + |#1#2#3#. . . . . + . . + . + + . + U+4#).)#. p *+-+5#+ . + . . . . . ",
". . + + . . . ]#K@6#v.+ . 4.7#8#9#. + + . . + . . . + . + + +@0#a#^#+ . p b#c#d#+ + . . . . + . ",
". . + + . + + Y.V W.p+. . + e#f#g#h#. . . + + + . + + . . . o@9 '@+ . . ^.i#j#k#. . . . . + + . ",
". + + . + + . A+O l#o+. . . . m#r.n#+ . . . . + . . . . . o#p#%+_+. + . !.q#r#<.+ . . . . . + . ",
". . . . . . + U /.l#0@+ . . . 3#s#t#u#. . . . . . . . . V.g U@I+. . . . $ v#w#x#. . + . . . . . ",
". . . . . . . _+y#>+z#@ . . . . A#B#C#D#. . . . . . . ( E#q.h@. . . . . I 7#T ~#. . . . . . . . ",
". . . . . . . . F#>+O D . . . . . G#>.H#I#. . . . . S+X.e.J#. . . . . . K#L#M#p . . . . . . . . ",
". . . . . . . . $+2.s@( . . . . . . {#B#< .+. . . ~@ @e.N#. . . . . . . O#n#P#. . . . . . . . . ",
". . . . . . . . . k.p#6#. . . . . . . Q#1 S.; . ' !+f@4@. . . . . . . . R#S#'.. . . . . . . . . ",
". . . . . . . . . a+T#U#`+. . . . . . . _ V#W#X#Y#w ... . . . . . . . Z#`# $. . . . . . . . . . ",
". . . . . . . . . . e+s@ .V.. . . . . . . .$+$@$#$$$%$. . . . . . . &$J.`#{+. . . . . . . . . . ",
". . . . . . . . . . . *$p#>+=$m@. . 9.-$Q.:+;$>$,$J.'$;.)$. . . !$~$,${$$.. . . . . . . . . . . ",
". . . . . . . . . . . . z.L.q.U@2.q.`@!+C J@Y.. ]$^$/$($_$s.`#:$<$[$}$|$. . . . . . . . . . . . ",
". . . . . . . . . . . . . # a+1$2$F#z 3.:.. . . . . 3$4$5$6$7$8$9$0${+. . . . . . . . . . . . . ",
". . . . . . . . . . . . . . . . . . . . . . . . . . . . . + _+. . . . . . . . . . . . . . . . . "};
