/* XPM */
static char * ss7view_xpm[] = {
"48 48 510 2",
"  	c None",
". 	c #FFFFFF",
"+ 	c #FEFEFE",
"@ 	c #FBFBFB",
"# 	c #F8F8F8",
"$ 	c #F8F9FD",
"% 	c #D6D8F2",
"& 	c #ACAFE4",
"* 	c #8A8FDA",
"= 	c #8187D7",
"- 	c #9499DD",
"; 	c #B3B6E7",
"> 	c #D4D6F1",
", 	c #F5F5FB",
"' 	c #F0F0F0",
") 	c #C7C7C7",
"! 	c #8F8F8F",
"~ 	c #5A5A5A",
"{ 	c #404040",
"] 	c #3F3F3F",
"^ 	c #595959",
"/ 	c #989898",
"( 	c #DCDCDC",
"_ 	c #D5D7F2",
": 	c #686FCF",
"< 	c #323BBF",
"[ 	c #2A34BC",
"} 	c #313ABF",
"| 	c #3841C1",
"1 	c #363FC0",
"2 	c #373FBF",
"3 	c #424BC4",
"4 	c #5D65CC",
"5 	c #A7ABE2",
"6 	c #F5F5FC",
"7 	c #F4F4F4",
"8 	c #999999",
"9 	c #373737",
"0 	c #151515",
"a 	c #101010",
"b 	c #1D1D1D",
"c 	c #303030",
"d 	c #2F2F2F",
"e 	c #1A1A1A",
"f 	c #0E0E0E",
"g 	c #1E1E1E",
"h 	c #878787",
"i 	c #F7F7F7",
"j 	c #BEC1EA",
"k 	c #333CBF",
"l 	c #2731BB",
"m 	c #5960CB",
"n 	c #C0C2EA",
"o 	c #F3F4FB",
"p 	c #FCFCFE",
"q 	c #DCDDF3",
"r 	c #9EA2E0",
"s 	c #5E66CC",
"t 	c #3D46C2",
"u 	c #4E56C7",
"v 	c #898CA9",
"w 	c #282828",
"x 	c #7C7C7C",
"y 	c #D3D3D3",
"z 	c #B3B3B3",
"A 	c #2D2D2D",
"B 	c #121212",
"C 	c #555555",
"D 	c #FAFAFA",
"E 	c #D1D3F0",
"F 	c #3039BD",
"G 	c #252EBA",
"H 	c #888EDA",
"I 	c #F7F7FC",
"J 	c #C1C4EB",
"K 	c #25295E",
"L 	c #030308",
"M 	c #07070C",
"N 	c #ECECEC",
"O 	c #3B3B3B",
"P 	c #161616",
"Q 	c #686868",
"R 	c #636ACE",
"S 	c #2C35BC",
"T 	c #6168CD",
"U 	c #F1F1F1",
"V 	c #4F4F4F",
"W 	c #0A0A0A",
"X 	c #13131F",
"Y 	c #2932A3",
"Z 	c #4C54C6",
"` 	c #EEEFF9",
" .	c #191919",
"..	c #BABABA",
"+.	c #BFC2EA",
"@.	c #2B35BD",
"#.	c #2932BC",
"$.	c #E5E6F7",
"%.	c #EAEAEA",
"&.	c #484848",
"*.	c #0D0D0D",
"=.	c #3C3C3C",
"-.	c #F6F6F6",
";.	c #B0B3E6",
">.	c #343DBF",
",.	c #4D54C7",
"'.	c #E0E1F5",
").	c #979797",
"!.	c #FAFAFD",
"~.	c #7F85D7",
"{.	c #323CBE",
"].	c #6B72D0",
"^.	c #FBFBFD",
"/.	c #4B4B4B",
"(.	c #0F0F0F",
"_.	c #434343",
":.	c #F3F3F3",
"<.	c #B8BBE8",
"[.	c #4048C3",
"}.	c #545BC9",
"|.	c #DDDFF4",
"1.	c #F2F2F2",
"2.	c #242424",
"3.	c #D1D1D1",
"4.	c #E7E8F7",
"5.	c #444DC4",
"6.	c #2F39BE",
"7.	c #BBBEE9",
"8.	c #535353",
"9.	c #EBEBEB",
"0.	c #ADB1E5",
"a.	c #434CC4",
"b.	c #5961CA",
"c.	c #EAEAF8",
"d.	c #626262",
"e.	c #2E2E2E",
"f.	c #A3A3A3",
"g.	c #D8DAF3",
"h.	c #313ABE",
"i.	c #333DBF",
"j.	c #DCDDF4",
"k.	c #636363",
"l.	c #0B0B0B",
"m.	c #252525",
"n.	c #E3E3E3",
"o.	c #9CA0DF",
"p.	c #9C9C9C",
"q.	c #292929",
"r.	c #3039BE",
"s.	c #424BC3",
"t.	c #838383",
"u.	c #060606",
"v.	c #D9D9D9",
"w.	c #7E83D6",
"x.	c #3E46C2",
"y.	c #6F76D1",
"z.	c #C2C2C2",
"A.	c #272727",
"B.	c #5F5F5F",
"C.	c #A9ACE3",
"D.	c #565EC9",
"E.	c #EFEFFA",
"F.	c #BCBCBC",
"G.	c #020202",
"H.	c #B7B7B7",
"I.	c #4F57C8",
"J.	c #3A43C1",
"K.	c #A0A4E1",
"L.	c #525252",
"M.	c #9A9DDD",
"N.	c #3C45C0",
"O.	c #6970CF",
"P.	c #353535",
"Q.	c #6E6E6E",
"R.	c #EAEBF8",
"S.	c #2F38BE",
"T.	c #3B43C1",
"U.	c #D9DAF3",
"V.	c #D5D5D5",
"W.	c #333333",
"X.	c #4A4A4A",
"Y.	c #E6E6E6",
"Z.	c #9FA4E0",
"`.	c #5259C8",
" +	c #797DD3",
".+	c #B2B5E6",
"++	c #424AC1",
"@+	c #686FCE",
"#+	c #F7F8FC",
"$+	c #D7D7D7",
"%+	c #363636",
"&+	c #E5E5E5",
"*+	c #B6BAE7",
"=+	c #777DD4",
"-+	c #8F94DA",
";+	c #F4F4FB",
">+	c #1F1F1F",
",+	c #131313",
"'+	c #6269CD",
")+	c #B7BBE7",
"!+	c #3E3E3E",
"~+	c #4E4E4E",
"{+	c #FDFDFE",
"]+	c #D4D5F0",
"^+	c #A0A5E0",
"/+	c #ADB0E4",
"(+	c #F5F5FA",
"_+	c #FDFDFD",
":+	c #3D3D3D",
"<+	c #6A6A6A",
"[+	c #DEDFF3",
"}+	c #878DD9",
"|+	c #969ADB",
"1+	c #F1F1F9",
"2+	c #DDDDDD",
"3+	c #5E5E5E",
"4+	c #696969",
"5+	c #E9EAF6",
"6+	c #C4C7EB",
"7+	c #C6C8EC",
"8+	c #E9E9E9",
"9+	c #898989",
"0+	c #767676",
"a+	c #D4D4D4",
"b+	c #C6C9EC",
"c+	c #AEB2E5",
"d+	c #D9DBF2",
"e+	c #939393",
"f+	c #9D9D9D",
"g+	c #F4F5FB",
"h+	c #D8D9F2",
"i+	c #D7D9F1",
"j+	c #F9F9FC",
"k+	c #EEEEF9",
"l+	c #CACDED",
"m+	c #CED1EE",
"n+	c #FBFBFC",
"o+	c #C3C3C3",
"p+	c #CDCDCD",
"q+	c #FCFCFC",
"r+	c #E1E2F4",
"s+	c #E0E1F4",
"t+	c #F8F8FB",
"u+	c #DADBF2",
"v+	c #DBDBDB",
"w+	c #E8E8E8",
"x+	c #E5E6F6",
"y+	c #E3E4F5",
"z+	c #F7F7FB",
"A+	c #CACACA",
"B+	c #D6D6D6",
"C+	c #F6F6FB",
"D+	c #E2E3F5",
"E+	c #E2E2E2",
"F+	c #DADADA",
"G+	c #6C6C6C",
"H+	c #444444",
"I+	c #A1A1A1",
"J+	c #E8E9F6",
"K+	c #E3E5F5",
"L+	c #CFD0D5",
"M+	c #656565",
"N+	c #4D4D4D",
"O+	c #959595",
"P+	c #EDEDED",
"Q+	c #B5B5B5",
"R+	c #B4B4B4",
"S+	c #7B7B7B",
"T+	c #A2A2A2",
"U+	c #F9F9F9",
"V+	c #E6E8F7",
"W+	c #F3F3F9",
"X+	c #E4E4E4",
"Y+	c #4C4C4C",
"Z+	c #010101",
"`+	c #474747",
" @	c #090909",
".@	c #B9BAC1",
"+@	c #DCDDEE",
"@@	c #5B5B5D",
"#@	c #000000",
"$@	c #414141",
"%@	c #050505",
"&@	c #A8A8A8",
"*@	c #CECECE",
"=@	c #080808",
"-@	c #181818",
";@	c #2A2A2A",
">@	c #707070",
",@	c #F3F3FA",
"'@	c #E4E6F6",
")@	c #E5E6F3",
"!@	c #E1E1E1",
"~@	c #494949",
"{@	c #969696",
"]@	c #5C5D5F",
"^@	c #D2D3E2",
"/@	c #383838",
"(@	c #D2D2D2",
"_@	c #BFBFBF",
":@	c #3A3A3A",
"<@	c #BBBBBB",
"[@	c #B2B2B2",
"}@	c #D8D8D8",
"|@	c #AAAAAA",
"1@	c #C0C0C0",
"2@	c #A5A5A5",
"3@	c #8A8A8A",
"4@	c #C0C1D0",
"5@	c #E1E2EC",
"6@	c #B5B5B6",
"7@	c #A9A9A9",
"8@	c #DEDEDE",
"9@	c #BDBDBD",
"0@	c #F3F3F6",
"a@	c #C9CAD3",
"b@	c #1C1C1C",
"c@	c #141414",
"d@	c #7D7D7D",
"e@	c #C4C4C4",
"f@	c #171717",
"g@	c #B6B6B6",
"h@	c #646464",
"i@	c #1F1F21",
"j@	c #BDBDC1",
"k@	c #6A6A6B",
"l@	c #030303",
"m@	c #CBCBCB",
"n@	c #070707",
"o@	c #B9B9B9",
"p@	c #D9DADE",
"q@	c #5A5A5B",
"r@	c #343434",
"s@	c #A7A7A7",
"t@	c #737374",
"u@	c #909091",
"v@	c #B0B0B0",
"w@	c #797979",
"x@	c #2C2C2C",
"y@	c #828282",
"z@	c #E2E3E4",
"A@	c #D5D5D6",
"B@	c #77777C",
"C@	c #5D5D5D",
"D@	c #747474",
"E@	c #9B9B9B",
"F@	c #474748",
"G@	c #B8B8BC",
"H@	c #040404",
"I@	c #202020",
"J@	c #666666",
"K@	c #9A9A9A",
"L@	c #E0E0E1",
"M@	c #AFAFB0",
"N@	c #CBCCDA",
"O@	c #F3F4FA",
"P@	c #EFEFEF",
"Q@	c #F5F5F5",
"R@	c #929292",
"S@	c #727272",
"T@	c #C5C5C5",
"U@	c #323232",
"V@	c #69696A",
"W@	c #E4E4EE",
"X@	c #161617",
"Y@	c #E7E7E7",
"Z@	c #3A3B3F",
"`@	c #D3D4E2",
" #	c #676767",
".#	c #B1B1B1",
"+#	c #868686",
"@#	c #9F9FA0",
"##	c #E5E6F5",
"$#	c #4D4E51",
"%#	c #616162",
"&#	c #353539",
"*#	c #404041",
"=#	c #111111",
"-#	c #575757",
";#	c #393939",
">#	c #505050",
",#	c #5C5C5C",
"'#	c #EEEEEE",
")#	c #8B8B8C",
"!#	c #86878E",
"~#	c #E0E0E0",
"{#	c #616161",
"]#	c #636369",
"^#	c #121214",
"/#	c #111112",
"(#	c #8D8D8D",
"_#	c #E8E8E9",
":#	c #E6E7F7",
"<#	c #C5C6D2",
"[#	c #3D3D3E",
"}#	c #7A7A7A",
"|#	c #F4F5F8",
"1#	c #D6D7EB",
"2#	c #D3D4EA",
"3#	c #EFF0F6",
"4#	c #F0F0F6",
"5#	c #DFDFDF",
"6#	c #DEE0F4",
"7#	c #CED0EF",
"8#	c #DFE1F4",
"9#	c #CCCCCC",
"0#	c #F0F0F9",
"a#	c #9297DC",
"b#	c #878CD8",
"c#	c #CDCFEE",
"d#	c #B9BCE8",
"e#	c #A4A4A4",
"f#	c #A3A6E1",
"g#	c #535AC8",
"h#	c #757CD3",
"i#	c #F1F2FA",
"j#	c #CCCEEE",
"k#	c #808080",
"l#	c #525AC9",
"m#	c #3C45C1",
"n#	c #ABADE2",
"o#	c #5B5B5B",
"p#	c #565656",
"q#	c #A2A7E0",
"r#	c #6C72D0",
"s#	c #BBBEE8",
"t#	c #B9BCE9",
"u#	c #323BBE",
"v#	c #333CBE",
"w#	c #818181",
"x#	c #959ADC",
"y#	c #5B63CC",
"z#	c #B5B8E6",
"A#	c #7B81D5",
"B#	c #535AC9",
"C#	c #B8B8B8",
"D#	c #1B1B1B",
"E#	c #868CD8",
"F#	c #575FCA",
"G#	c #4851C5",
"H#	c #2D37BD",
"I#	c #8086D7",
"J#	c #232323",
"K#	c #7076D2",
"L#	c #5C63CC",
"M#	c #C8CAED",
"N#	c #787878",
"O#	c #757575",
"P#	c #DADBF3",
"Q#	c #353EC0",
"R#	c #2D36BD",
"S#	c #9CA1E0",
"T#	c #A6A6A6",
"U#	c #CDCFEF",
"V#	c #313ABD",
"W#	c #A9ADE4",
"X#	c #E3E4F6",
"Y#	c #3F48C3",
"Z#	c #676ECF",
"`#	c #ABABAB",
" $	c #999DDE",
".$	c #9297DD",
"+$	c #CFD2F0",
"@$	c #ACACAC",
"#$	c #3942C1",
"$$	c #4851C6",
"%$	c #3B43C2",
"&$	c #2A33BB",
"*$	c #797DB5",
"=$	c #262626",
"-$	c #8C92DB",
";$	c #4A52C6",
">$	c #7F84D7",
",$	c #CDCEDA",
"'$	c #2B2F65",
")$	c #06071A",
"!$	c #13152F",
"~$	c #B4B5D2",
"{$	c #F9FAFD",
"]$	c #B6B9E8",
"^$	c #8E8E8E",
"/$	c #7F7F7F",
"($	c #AFAFAF",
"_$	c #5D5F82",
":$	c #4049C3",
"<$	c #676DCF",
"[$	c #EDEEF9",
"}$	c #E1E2F5",
"|$	c #848AD8",
"1$	c #555DCA",
"2$	c #313131",
"3$	c #909090",
"4$	c #E8E9F7",
"5$	c #969BDE",
"6$	c #565ECA",
"7$	c #414AC3",
"8$	c #3C44C1",
"9$	c #4149C4",
"0$	c #3D45C2",
"a$	c #4B53C6",
"b$	c #878BD8",
"c$	c #EBECF8",
"d$	c #F0F0FA",
"e$	c #CDD0EE",
"f$	c #AFB3E5",
"g$	c #959BDD",
"h$	c #8C91DA",
"i$	c #979CDE",
"j$	c #B4B7E6",
"k$	c #DFE0F4",
". . . . . . . . . . . . . . . + + . . . . . . . . . . . . @ # # @ . . . . . . . . . . . . . . . ",
". . . . . . . . . . . . $ % & * = - ; > , . . . . . ' ) ! ~ { ] ^ / ( . . . . . . . . . . . . . ",
". . . . . . . . . . . _ : < [ } | 1 2 3 4 5 6 . 7 8 9 0 a b c d e f g h i . . . . . . . . . . . ",
". . . . . . . . . . j k l m n o . p q r s t u v d a w x y + . . i z A B C D . . . . . . . . . . ",
". . . . . . . . . E F G H $ . . . . . . I J K L M h N . . . . . . . ' O P Q . . . . . . . . . . ",
". . . . . . . . $ R S T . . . . . . . . U V W X Y Z ` . . . . . . . . ' 0  .... . . . . . . . . ",
". . . . . . . . +.@.#.$.. . . . . . . %.&.*.=.-.;.>.,.'.. . . . . . . . ).b C . . . . . . . . . ",
". . . . . . . !.~.{.].^.. . . . . . N /.(._.:.. . <.[.}.|.. . . . . . . 1.2.c 3.. . . . . . . . ",
". . . . . . . 4.5.6.7.. . . . . . -.8.(.O 9.. . . . 0.a.b.c.. . . . . . D d.e.f.. . . . . . . . ",
". . . . . . . g.h.i.j.. . . . . . k.l.m.n.. . . . . . o.[.4 p . . . . . + p.q.x + . . . . . . . ",
". . . . . . . J r.s.4.. . . . . t.u.*.v.. . . . . . . . w.x.y.. . . . . . z.A.B.7 . . . . . . . ",
". . . . . . + C.k D.E.. . . . F.W G.H.. . . . . . . . . . I.J.K.. . . . . 3.e.L.9.. . . . . . . ",
". . . . . . p M.N.O.o . . . %.P.*.Q.. . . . . . . . . . . R.S.T.U.. . . . V.W.X.Y.. . . . . . . ",
". + . . + + p Z.`. +, . + + h (.w # . . . . . . . . . + . + .+++@+#++ + . $+%+&.&+. . . . . . . ",
"+ . . + + + p *+=+-+;+. + $+>+,+H.+ . . . . + . + . + . + + + w.'+)+. . . v.!+~+Y.. . . + . + + ",
". + . . . + {+]+^+/+(++ _+h :+<+-.. + + . + + + + + + . + . . [+}+|+1++ . 2+3+4+%.. . . . . . . ",
". . + + . + + 5+6+7+I + 8+9+0+a+. + . + + + + + + + + . + . + ^.b+c+d+{+. Y.e+f+7 + . . . + + . ",
". + + + + . + g+h+i+j+. 3...) + + . . . + + . + . + . . + . + . k+l+m+n++ 9.o+p+q++ . + . . + . ",
"+ + . . + + . j+r+s+t+i V.a+U + . . + . + . . . + . + . + . + + . '.u+` _+9.v+w+. . + . + + . . ",
"+ + . . _+8+1.!.x+y+z+Y.A+B+. + . . + . + . + . . + . . . _++ + + C+D+y+q+%.E+U . . + . + . . . ",
"+ . + F+G+H+8.I+J+K+L+M+=.N+O++ P+..Q+R+R+F.-.+ . + + . w+S+T+U++ + V+K+W+X+X+-.. . + . . + . . ",
". + # Y+Z+`+,+ @.@+@@@#@$@e %@&@*@ .u.=@-@;@X++ + . . . ( P.>@7 + . ,@'@)@!@&+D + . . . . + + . ",
"+ . 1.#@~@1.{@#@]@^@e /@(@_@#@:@+ <@H.z Z+P.%.[@X+. F+<@}@|@1@@ + 2@3@4@5@6@7@D 8@9@U ( ... + + ",
". . :.#@w *@. i 0@a@b@c@o+. i -.+ . . d@#@z.e@#@x + N+f@g@w h@+ 3+#@#@i@j@k@l@m@0+n@e@4+=@+ . + ",
"+ . i Y+#@#@=.o@q+p@q@#@#@r@s@+ . . 7 c@%++ F+q.`+D f q.X+g k.a+Z+!+o@Z+t@u@#@f+C #@v@:+q.+ + . ",
"+ . . 7 w@x@ @#@y@z@A@B@d f #@B.. + O+#@&@. i C@P o+#@D@n.g 4+E@Z+C ! -@F@G@H@G+{ *.d@I@J@+ + . ",
"+ + @ _@w+. K@=@B L@M@N@O@Q+H@-@P@+ /.#@Q@. + R@#@S@#@T@( >+4+R@l@e U@W.V@W@X@:+r@~+O =@f.. + + ",
"+ . 7 (.Y+# Y@*.,+v.e.Z@`@. W -@1.w+;@e.+ . . z.b@,+*.. }@g  #.##@J@%.+#@###$#l.c 9+f #@8@+ . + ",
"+ . U+C #@!+%+#@Q !@%##@&#*##@N++ T@=#-#+ + + -.;##@>#. V.-@,#'#f@,+N+ @)#K+!##@U@..=@f Q@+ + + ",
"+ + + ~#{#=#0 S@8@~#y ]#^#/#d.8+. A+~+/ . + + . (#] g@+ !@,#3@@ ) e.(.B._#:#<#[#}#n.^ 0+D + + + ",
". . . . D -.-.# Y.~#U |#1#2#3#. + _+U+@ + . . . @ # q++ _+D @ + . F+3.N q+4.y+4#D + U+D + . + + ",
"+ + . . + + + D 5#( :.. 6#7+7#{++ . + + + . + + + . . . + . + . P+A+p+@ _+8#h+` . . . + . + + . ",
". . . . + . + U+y 9#' . 0#a#b#h+. + . . . + + + + . . + + + . D F.s@( + ^.c#d#s++ + . . + + + + ",
". . + . + . . :.Q+e#Y.. + f#g#h#i#. . . . . + . . + . + + . + (@w@).Q@. p *+-+j#+ . + . . . . . ",
". . + + . . . P+k#M+v.+ . 4.l#m#n#. + + . . + . . . + . + + U+o#p#A++ . p q#r#s#+ + . . . . + . ",
". . + + . + + Y.V W.p+. . + t#u#v#:#. . . + + + . + + . . . }#9 w#+ . . ^.x#y#z#. . . . . + + . ",
". + + . + + . Y@O b@o+. . . . A#r.B#+ . . . . + . . . . . C#D#%+_+. + . !.E#F#<.+ . . . . . + . ",
". . . . . . + U /.b@7@+ . . . i#G#H#I#. . . . . . . . . V.g J#8@. . . . $ K#L#M#. . + . . . . . ",
". . . . . . . _+N#>+O#@ . . . . P#Q#R#S#. . . . . . . ( /@q.9@. . . . . I l#T 6#. . . . . . . . ",
". . . . . . . . T#>+O D . . . . . U#>.V#W#. . . . . X+X.e.v@. . . . . . X#Y#Z#p . . . . . . . . ",
". . . . . . . . $+2.=#( . . . . . . 7#Q#< .+. . . '#Y+e.`#. . . . . . .  $B#.$. . . . . . . . . ",
". . . . . . . . . k.D#M+. . . . . . . +$1 S.; . ' !+;@@$. . . . . . . . #$$$'.. . . . . . . . . ",
". . . . . . . . . a+c@n@9#. . . . . . . _ %$&$*$=$w ... . . . . . . . -$;$>$. . . . . . . . . . ",
". . . . . . . . . . e+=# .V.. . . . . . . ,$'$)$!$~${$. . . . . . . ]$J.;${+. . . . . . . . . . ",
". . . . . . . . . . . ^$D#>+/$F+. . 9.($Q.:+:@_$:$J.<$;.[$. . . }$|$:$1$$.. . . . . . . . . . . ",
". . . . . . . . . . . . z.L.q.J#2.q.2$!+C 3$Y.. 4$5$6$7$8$s.;$9$0$a$b$c$. . . . . . . . . . . . ",
". . . . . . . . . . . . . # a+.#2@T#z 3.:.. . . . . d$e$f$g$h$i$j$k${+. . . . . . . . . . . . . ",
". . . . . . . . . . . . . . . . . . . . . . . . . . . . . + _+. . . . . . . . . . . . . . . . . "};
