/* XPM */
static char * strx25_xpm[] = {
"64 64 505 2",
"  	c #FFFFFF",
". 	c #FAFAFE",
"+ 	c #B2B6E6",
"@ 	c #828ADA",
"# 	c #767ED6",
"$ 	c #8286DA",
"% 	c #A6AAE2",
"& 	c #EAEAFA",
"* 	c #FAFAFA",
"= 	c #AEAEAE",
"- 	c #5A5A5A",
"; 	c #2E2E2E",
"> 	c #1E1E1E",
", 	c #5E5E5E",
"' 	c #CECECE",
") 	c #CECEEE",
"! 	c #3E46C2",
"~ 	c #1E2AB2",
"{ 	c #262EBA",
"] 	c #464EC6",
"^ 	c #424AC6",
"/ 	c #222EBA",
"( 	c #2632BA",
"_ 	c #7E7E7E",
": 	c #2A2A2A",
"< 	c #020202",
"[ 	c #060606",
"} 	c #424242",
"| 	c #666666",
"1 	c #323232",
"2 	c #868686",
"3 	c #CACEEE",
"4 	c #2A36BE",
"5 	c #222ABA",
"6 	c #666ECE",
"7 	c #E6E6F6",
"8 	c #DEDEF6",
"9 	c #7A7ED6",
"0 	c #373FC2",
"a 	c #BEC2EA",
"b 	c #777777",
"c 	c #030303",
"d 	c #070707",
"e 	c #6B6B6B",
"f 	c #E6E6E6",
"g 	c #B2B2B2",
"h 	c #161616",
"i 	c #8E8E8E",
"j 	c #F2F2FA",
"k 	c #3A42C2",
"l 	c #4047C2",
"m 	c #2530BB",
"n 	c #404054",
"o 	c #050505",
"p 	c #1D1D1D",
"q 	c #808080",
"r 	c #0F0F0F",
"s 	c #0A0A0A",
"t 	c #D2D2D2",
"u 	c #868EDA",
"v 	c #F6F6FE",
"w 	c #1E224A",
"x 	c #080808",
"y 	c #1F1F27",
"z 	c #DFDFDF",
"A 	c #939393",
"B 	c #4F4F4F",
"C 	c #2E3ABE",
"D 	c #C2C2EE",
"E 	c #0C0C0C",
"F 	c #11152C",
"G 	c #282F9B",
"H 	c #AEB1E7",
"I 	c #F6F6F6",
"J 	c #252525",
"K 	c #090909",
"L 	c #DADADA",
"M 	c #AAAAE6",
"N 	c #A7A7A7",
"O 	c #111111",
"P 	c #C2C2D1",
"Q 	c #4C53C6",
"R 	c #3940C3",
"S 	c #D1D5F3",
"T 	c #898989",
"U 	c #626ACE",
"V 	c #8E96DE",
"W 	c #D9D9D9",
"X 	c #202020",
"Y 	c #171717",
"Z 	c #B5B5B5",
"` 	c #DADAF3",
" .	c #3F4AC4",
"..	c #4D54C8",
"+.	c #F0F0FA",
"@.	c #E0E0E0",
"#.	c #0B0B0B",
"$.	c #383838",
"%.	c #F6FAFE",
"&.	c #2E36BE",
"*.	c #D2D6F2",
"=.	c #484848",
"-.	c #1B1B1B",
";.	c #7D7D7D",
">.	c #B0B4E5",
",.	c #3B46C2",
"'.	c #8286D7",
").	c #373737",
"!.	c #131313",
"~.	c #EFEFEF",
"{.	c #D7D7F2",
"].	c #272FBC",
"^.	c #363EBF",
"/.	c #969696",
"(.	c #404040",
"_.	c #F4F4F4",
":.	c #767DD4",
"<.	c #3B46BC",
"[.	c #BFC3ED",
"}.	c #757575",
"|.	c #191919",
"1.	c #C0C0C0",
"2.	c #B4B8E8",
"3.	c #323ABF",
"4.	c #636BCE",
"5.	c #292929",
"6.	c #C5C5C5",
"7.	c #EAEAF7",
"8.	c #5158C9",
"9.	c #5B62CC",
"0.	c #F8F8FE",
"a.	c #A3A3A3",
"b.	c #262626",
"c.	c #9C9C9C",
"d.	c #A5A8E5",
"e.	c #4E55C8",
"f.	c #9295DE",
"g.	c #7C7C7C",
"h.	c #3E3E3E",
"i.	c #818181",
"j.	c #B5B7EA",
"k.	c #5C62CC",
"l.	c #A6A9E4",
"m.	c #C7C7C7",
"n.	c #3D3D3D",
"o.	c #8D8D8D",
"p.	c #9FA5E3",
"q.	c #666ECB",
"r.	c #B5B8E9",
"s.	c #D7D7D7",
"t.	c #4E4E4E",
"u.	c #535353",
"v.	c #EBEBEB",
"w.	c #F9FCFE",
"x.	c #878CDB",
"y.	c #787FD6",
"z.	c #EDEDF9",
"A.	c #E3E3E3",
"B.	c #909090",
"C.	c #A5A9E4",
"D.	c #838AD8",
"E.	c #CDD0EF",
"F.	c #8F8F8F",
"G.	c #626262",
"H.	c #ABABAB",
"I.	c #D5D7F1",
"J.	c #888DDA",
"K.	c #B4B9E9",
"L.	c #787878",
"M.	c #959595",
"N.	c #ADB1E6",
"O.	c #9A9EE0",
"P.	c #ADB0E5",
"Q.	c #9EA3E2",
"R.	c #F0F0FB",
"S.	c #FBFBFB",
"T.	c #A2A2A2",
"U.	c #B9BDE9",
"V.	c #ABAEE5",
"W.	c #E4E6F7",
"X.	c #B3B3B3",
"Y.	c #C3C3C3",
"Z.	c #E2E4F7",
"`.	c #A7ABE4",
" +	c #C9CCEF",
".+	c #FCFCFC",
"++	c #A0A0A0",
"@+	c #BFC2EB",
"#+	c #B1B5E4",
"$+	c #E8EAF8",
"%+	c #A1A1A1",
"&+	c #FDFDFD",
"*+	c #BABDEA",
"=+	c #B2B6E8",
"-+	c #F6F7FD",
";+	c #A9A9A9",
">+	c #C1C5EC",
",+	c #B5B9E8",
"'+	c #EAEBF8",
")+	c #CBCBCB",
"!+	c #A6A6A6",
"~+	c #C4C4C4",
"{+	c #DFE0F5",
"]+	c #B3B6E7",
"^+	c #D8D9F2",
"/+	c #ADADAD",
"(+	c #E2E2E2",
"_+	c #616161",
":+	c #1A1A1A",
"<+	c #606060",
"[+	c #C7C9ED",
"}+	c #BBBEEA",
"|+	c #E8EAF9",
"1+	c #F9F9F9",
"2+	c #AFAFAF",
"3+	c #E2E2E4",
"4+	c #3C3D4A",
"5+	c #0A0A0C",
"6+	c #141414",
"7+	c #313131",
"8+	c #B4B4B4",
"9+	c #BDBDBD",
"0+	c #505050",
"a+	c #0D0D0D",
"b+	c #000000",
"c+	c #C1C1C1",
"d+	c #181818",
"e+	c #D1D2F0",
"f+	c #C3C6EC",
"g+	c #E9EAF8",
"h+	c #B0B0B0",
"i+	c #8789A4",
"j+	c #E5E6F2",
"k+	c #C9C9C9",
"l+	c #B9B9B9",
"m+	c #C6C6C6",
"n+	c #B1B1B1",
"o+	c #F8F8F8",
"p+	c #212121",
"q+	c #A5A5A5",
"r+	c #54555D",
"s+	c #C6C8E8",
"t+	c #FEFEFE",
"u+	c #707070",
"v+	c #040404",
"w+	c #888888",
"x+	c #BFBFBF",
"y+	c #B5B8D7",
"z+	c #DADBF4",
"A+	c #F7F7F7",
"B+	c #CFCFCF",
"C+	c #3B3B3B",
"D+	c #9F9F9F",
"E+	c #EAEAEA",
"F+	c #E9E9E9",
"G+	c #F5F5F5",
"H+	c #717171",
"I+	c #646672",
"J+	c #E8E9F8",
"K+	c #4B4B4B",
"L+	c #EEEEEE",
"M+	c #8C8C8C",
"N+	c #F3F3F3",
"O+	c #ACACAC",
"P+	c #232323",
"Q+	c #121214",
"R+	c #4F505C",
"S+	c #979799",
"T+	c #E5E5E5",
"U+	c #F2F2F2",
"V+	c #151515",
"W+	c #9A9A9A",
"X+	c #272727",
"Y+	c #18181B",
"Z+	c #E7E7F8",
"`+	c #1C1C1C",
" @	c #BABABA",
".@	c #222222",
"+@	c #E4E4E4",
"@@	c #010101",
"#@	c #929292",
"$@	c #9D9D9D",
"%@	c #A8A8A8",
"&@	c #030304",
"*@	c #E2E4F6",
"=@	c #BEBEC1",
"-@	c #6D6E7E",
";@	c #1E1E21",
">@	c #E7E7E7",
",@	c #D3D3D3",
"'@	c #19191C",
")@	c #DDDFF5",
"!@	c #DBDCF4",
"~@	c #BBBCD7",
"{@	c #5B5B5B",
"]@	c #727272",
"^@	c #676874",
"/@	c #D9DBF4",
"(@	c #E9E9EA",
"_@	c #454545",
":@	c #E8E8E8",
"<@	c #E4E4F2",
"[@	c #8C8EA2",
"}@	c #414141",
"|@	c #C8C8C8",
"1@	c #4D4D4D",
"2@	c #363636",
"3@	c #606161",
"4@	c #D3D6ED",
"5@	c #D7D9F1",
"6@	c #D8D8DC",
"7@	c #2D2D2D",
"8@	c #0E0E0E",
"9@	c #4A4A4A",
"0@	c #474747",
"a@	c #121215",
"b@	c #53535B",
"c@	c #C2C2C2",
"d@	c #CDCDCD",
"e@	c #5F5F5F",
"f@	c #DFE1F5",
"g@	c #D9DBF3",
"h@	c #D4D4D5",
"i@	c #D4D4D4",
"j@	c #FEFEFF",
"k@	c #D8DAF3",
"l@	c #D5D7EF",
"m@	c #D6D6D6",
"n@	c #DADCEC",
"o@	c #E5E6F7",
"p@	c #D6D7EA",
"q@	c #EFF0F9",
"r@	c #D7D8E5",
"s@	c #E1E1E1",
"t@	c #F0F1FA",
"u@	c #ECECEC",
"v@	c #D4D4DB",
"w@	c #D0D0D0",
"x@	c #F9F9FD",
"y@	c #D5D5DD",
"z@	c #D2D2D3",
"A@	c #FDFDFE",
"B@	c #FDFEFF",
"C@	c #D1D1D3",
"D@	c #D1D1D1",
"E@	c #565656",
"F@	c #7B7B7B",
"G@	c #EDEEF9",
"H@	c #585858",
"I@	c #C5C6D6",
"J@	c #F0F0F0",
"K@	c #737373",
"L@	c #CDCEDE",
"M@	c #F2F2FB",
"N@	c #35353B",
"O@	c #FBFBFC",
"P@	c #BBBBBB",
"Q@	c #CED0E8",
"R@	c #5E5E65",
"S@	c #3B3B3C",
"T@	c #6E6E6E",
"U@	c #BEBEBE",
"V@	c #282828",
"W@	c #1E1E23",
"X@	c #72737C",
"Y@	c #DCDCDC",
"Z@	c #C2C4D0",
"`@	c #C4C4C6",
" #	c #454551",
".#	c #4F5053",
"+#	c #55555E",
"@#	c #555555",
"##	c #989898",
"$#	c #B9BCDC",
"%#	c #464750",
"&#	c #D2D3F1",
"*#	c #505052",
"=#	c #AAAAAA",
"-#	c #B6B6B6",
";#	c #BBBDDD",
">#	c #B7B7B7",
",#	c #111112",
"'#	c #CCCEE1",
")#	c #CACCEE",
"!#	c #CDCEE0",
"~#	c #121212",
"{#	c #EDEDED",
"]#	c #4B4B57",
"^#	c #6C6C6E",
"/#	c #3F3F3F",
"(#	c #A4A4A4",
"_#	c #EFF0FA",
":#	c #C3C5EC",
"<#	c #C7CAEE",
"[#	c #A2A2A3",
"}#	c #212226",
"|#	c #5F617A",
"1#	c #EEEEF8",
"2#	c #FDFDFF",
"3#	c #BABCE9",
"4#	c #EAEAF8",
"5#	c #D6D7F2",
"6#	c #B5B8E7",
"7#	c #ECEDF9",
"8#	c #DCDDF5",
"9#	c #B6BAE8",
"0#	c #CACDEF",
"a#	c #DADDF4",
"b#	c #F6F8FD",
"c#	c #B5B9E9",
"d#	c #F5F5FC",
"e#	c #DDDEF5",
"f#	c #B3B7E7",
"g#	c #E5E6F8",
"h#	c #CDCFEF",
"i#	c #B0B4E4",
"j#	c #D3D6F2",
"k#	c #B2B4E6",
"l#	c #EFEFFA",
"m#	c #AAADE4",
"n#	c #ABAFE6",
"o#	c #F8F8FD",
"p#	c #9E9E9E",
"q#	c #DBDDF4",
"r#	c #ACB1E6",
"s#	c #E3E4F7",
"t#	c #8A8A8A",
"u#	c #949ADE",
"v#	c #CACCEF",
"w#	c #B8B8B8",
"x#	c #D4D5F1",
"y#	c #A2A7E2",
"z#	c #6A6A6A",
"A#	c #E3E6F7",
"B#	c #787DD5",
"C#	c #7F84D7",
"D#	c #F4F4FC",
"E#	c #696969",
"F#	c #C4C6EC",
"G#	c #9094DC",
"H#	c #8A90DC",
"I#	c #525BC9",
"J#	c #A0A3E2",
"K#	c #3A3A3D",
"L#	c #A9ACE5",
"M#	c #747CD3",
"N#	c #EAECF9",
"O#	c #2F2F2F",
"P#	c #E1E1F7",
"Q#	c #3D48C5",
"R#	c #3E45C4",
"S#	c #E1E5F7",
"T#	c #353535",
"U#	c #2C2C2C",
"V#	c #8086D8",
"W#	c #585ECC",
"X#	c #F5F5FB",
"Y#	c #434343",
"Z#	c #8B93DC",
"`#	c #2A32BC",
" $	c #676FD0",
".$	c #575FCC",
"+$	c #545BC9",
"@$	c #646464",
"#$	c #F6F6FA",
"$$	c #424AC3",
"%$	c #B3B7E6",
"&$	c #F3F3FA",
"*$	c #3940C1",
"=$	c #6970D0",
"-$	c #C6C6EE",
";$	c #272FBA",
">$	c #C7CBEE",
",$	c #2A32BB",
"'$	c #9498DF",
")$	c #5A62CE",
"!$	c #868ADA",
"~$	c #CACAEE",
"{$	c #565ECA",
"]$	c #8A8EDA",
"^$	c #3642C2",
"/$	c #525252",
"($	c #7276A2",
"_$	c #DADEF6",
":$	c #2A2E86",
"<$	c #020206",
"[$	c #262632",
"}$	c #525ACA",
"|$	c #0E1232",
"1$	c #8E92DA",
"2$	c #9296DE",
"3$	c #767676",
"4$	c #CACACA",
"5$	c #DEDEE6",
"6$	c #D6D6F2",
"7$	c #969EDE",
"8$	c #3A3A3A",
"9$	c #969ADE",
"0$	c #8E92DE",
"a$	c #EEEEFA",
"b$	c #727AD2",
"c$	c #5A62CA",
"d$	c #5E66CE",
"e$	c #727AD6",
"f$	c #BEBEEA",
"                                                                                                                                ",
"                                                                                                                                ",
"                                            . + @ # $ % &             * = - ; > ; , '                                           ",
"                                          ) ! ~ { ] ^ / ( # &       _ : < [ } | 1 [ [ 2                                         ",
"                                        3 4 5 6 7     8 9 ( 0 a   b c d e f       g h < i                                       ",
"                                      j k 5 #             ) l m n o p q             ' r s t                                     ",
"                                      u 5 ] v               7 w x y z                 A c B                                     ",
"                                    j C 5 D                 b E F G H                 I J K L                                   ",
"                                    M / ]                 N O > P Q R S                 T d q                                   ",
"                                    U ~ V               W X Y Z   `  ...+.              @.#.$.                                  ",
"                                  %.&.5 *.            * =.-.;.      >.,.'.                ).!.~.                                ",
"                                  {.].^.v             /.X (._.        :.<.[.              }.|.1.                                ",
"                                  2.3.4.            f ; 5.6.          7.8.9.0.            a.b.c.                                ",
"                                  d.e.f.            g.h.i.              j.k.l.            m.n.o.                                ",
"                                  p.q.r.          s.t.u.v.              w.x.y.z.          A., B.                                ",
"                                  C.D.E.          F.G.H.                  I.J.K.          _.L.M.                                ",
"                                  N.O.8         @._ q _.                    P.Q.R.        S.A T.                                ",
"                                  U.V.W.        X.A Y.                      Z.`. +        .+++H.                                ",
"                                  @+#+$+      ~.%+%+_.                      &+*+=+-+      &+;+g                                 ",
"                                  >+,+'+      )+!+~+                          {+]+^+      .+/+X.                                ",
"    (+_+:+o :+<+(+                [+}+|+    1+2+;+v.                          3+4+5+c 6+7+.+8+9+f 0+a+c 6+7+      b+b+b+b+b+b+b+",
"  (+Y :+Y.1+c+d+Y (+              e+f+g+    z h+9+                            =.b+i+j+k+B * l+m+=.b+n+o+k+B               X.b+p+",
"  <+b+q+      T.b+<+    b+b+b+b+s r+s+$+  t+u+|.v+p w+t+    b+b+b+b+< 5.x+    d b+y+z+    A+1.B+d b+f                     C+b+D+",
"  d+b+E+      F+b+:+    b+b+u+G+H+b+I+J+  2 b+K+L+_ b+M+    b+b+G.N+O+b+P+    Y b+Q+R+S+T+U+6.W Y b+V+G.W+T+            Y.b+X+.+",
"  v+b+.+      .+b+o     b+b+f   T+b+Y+Z+  `+b+ @  L+b+.@    b+b++@  * b+@@    h+Y b+b+b+[ #@m+@.h+Y b+b+b+[ $@          K+b+%@  ",
"  d+b+v.      E+b+:+    b+b+&+  .+b+&@*@  c b+b+b+b+b+c     b+b+      b+b+      S.=@-@;@b+6+m+>@  S.Y.2 P+b+h         ,@@@; t+  ",
"  <+b+N       a.b+_+    b+b+f   f b+'@)@o+-.b+@.            b+b+      b+b+          !@~@b+d m.~.        A.b+x         {@b+n+    ",
"  (+Y -.~+1+Y.|.Y (+    b+b+]@I ]@b+^@/@(@b b+{@~.U+Z _@    b+b+      b+b+    n.%@:@<@[@b+}@|@A+n.%@:@1+H.b+1@      z v+2@      ",
"    (+<+d+v+d+<+(+      b+b+b+b+K 3@4@5@6@,@M+7@[ 8@9@ @    b+b+      b+b+    0@X x < a@b@c@d@t+0@X x < h e@v.      e b+l+      ",
"                        b+b+        f@g@h@i@A+                                      j@k@l@' m@                                  ",
"                        b+b+        $+n@m@W                                           o@p@B+@.                                  ",
"                        b+b+        q@r@,@s@                                          t@r@i@u@                                  ",
"                                    -+v@w@v.                                          x@y@z@A+                                  ",
"                                    A@t w@N+                                          B@C@D@&+                                  ",
"                                    E@b+F@G@    c.b+H@            1.E@h v+> ]@_.  b+b+b+b+b+b+                                  ",
"                                    s@Y K I@  z a+-.L+            }@/+L+J@K@b+E@  b+b+>@k+L@M@                                  ",
"                                    E+c.@@N@O@(.@@P@                      I b+K   b+b+s.|@Q@J+                                  ",
"                                    A.,@R@b+S@b+T@                        U@b+V@  b+b+x v+W@X@*                                 ",
"                                    Y@t Z@< b+@@(+                      w@d+@@n+    u@1.`@ #b+e                                 ",
"                                    m@D@.#b++#b+@#                    9+8@@@##      D@l+u@$#b+r                                 ",
"                                  A@w@M+b+%#&#*#b+=#                N [ d ;+      .+-#l+.+;#b+r                                 ",
"                                  1+>#,#!.'#)#!#~#V+E+  b+b+      o.@@r 1.        T+/+w@{#]#b+^#                                ",
"                                  N+/#b+(#_#:#<#[#b+@#  b+b+      b+b+b+b+b+b+b+  b+b+b+o }#|#1#                                ",
"                                  {#Z c+  2#f+3#4#                              o+O+ @&+  5#6#7#                                ",
"                                  >@= 1.    8#9#0#                              m@=#Y@    a#6#g+                                ",
"                                  f =#U@    b#6#c#d#                          &+8+= 1+    e#f#g#                                ",
"                                  +@N 9+      h#i#j#                          z !+B+      )@k#W.                                ",
"                                  +@++-#      l#m#n#o#                        2+p#N+      q#r#s#                                ",
"                                  +@t#++        f#u#v#                      W w+w#        x#y#g#                                ",
"                                  T+z#_         A#B#C#D#                    i.E#u@        F#G#7                                 ",
"                                  u@}@1@          H#I#J#                  l+K#A           L#M#N#                                ",
"                                  S.O#b.J@        P#Q#R#S#              A+T#U#u@          V#W#X#                                ",
"                                    Y#V+'           Z#`# $              ;.x $@            .$+$                                  ",
"                                    @$#.%+          #$$$m %$          t #./#*           &$*$=$                                  ",
"                                    ##[ @$            -$;$0 &       I 1 8@L             >$,$'$                                  ",
"                                    L c > *             @ 5 )$      T@< W+              !$;$~$                                  ",
"                                      1 < c@            %.{$~ ]$  p#< G.                ] ^$.                                   ",
"                                      /.< /$              & ! / ($[ } *               a 5 @                                     ",
"                                      U+:+[ m+              _$:$<$[$L+                }${ 7                                     ",
"                                        =#< .@E+          . t#[ |$~ 1$              2$~ ]$                                      ",
"                                          3$< ; '       4$} [ ]@5$}$~ )$6$        7${ {$v                                       ",
"                                            i 8@[ 8$- ; < h.c@    . 9$&./ )$2$0$] 5 U a$                                        ",
"                                              E+!+2 2 W+L             j % b$c$d$e$f$                                            ",
"                                                                                                                                "};
