/* XPM */
static char *diffDoc[] = {
/* columns rows colors chars-per-pixel */
"24 22 8 1",
"  c #000000",
". c #FFFF00",
"X c #848400",
"o c #848484",
"O c #CECECE",
"+ c #FFFFFF",
"@ c None",
"# c #000000",
/* pixels */
"@@@@@@@@@@@@@@@@@@@@@@@@",
"@@@@@@@@@@@@@@@@@@@@@@@@",
"@@@@@@@@@@@@@@@@@@@@@@@@",
"@@@@@@       @@@@@@@@@@@",
"@@@@@ OoOoOoO @@@@@@@@@@",
"@   @        O @@@@@@@@@",
" .X. +++++++ o @@@@@@@@@",
" X.X       + O @@@@@@@@@",
" .X.X.X.X. + o @@@@@@@@@",
" X.X.X.X.X + O @@@@@@@@@",
" .X.X.X.X. + o @@@@@@@@@",
" X.X.X.X.X + O @@@@@@@@@",
" .X.X.X.X. + o @@@@@@@@@",
"             O @@@@@@@@@",
"@@@@@ OoOoOoOo @@@@@@@@@",
"@@@@@@        @@@@@@@@@@",
"@@@@@@@@@@ o@@@@@@@@@@@@",
"@@@@@@@   o    @@@@@@@@@",
"@@@@@@@    o   @@@@@@@@@",
"@@@@@@@@@@@@@@@@@@@@@@@@",
"@@@@@@@@@@@@@@@@@@@@@@@@",
"@@@@@@@@@@@@@@@@@@@@@@@@"
};
