/* XPM */
static char *diffFolder[] = {
/* columns rows colors chars-per-pixel */
"24 22 32 1",
"  c #9C9C00",
". c #000000",
"X c #FFFF9C",
"o c #FFFFFF",
"O c #FFCE9C",
"+ c #63639C",
"@ c #CECE63",
"# c #EFEFEF",
"$ c #319C00",
"% c #31CEFF",
"& c #3163FF",
"* c #006300",
"= c #316300",
"- c #0000FF",
"; c #31FFFF",
": c #FFFFCE",
"> c #CEFFFF",
", c #848400",
"< c #31CE31",
"1 c #008400",
"2 c None",
"3 c #000000",
"4 c #000000",
"5 c #000000",
"6 c #000000",
"7 c #000000",
"8 c #000000",
"9 c #000000",
"0 c #000000",
"q c #000000",
"w c #000000",
"e c #000000",
/* pixels */
"222222222222222222222222",
"222222222222222222222222",
"222222222222222222222222",
"22     .2222222222222222",
"2 o::XX .222222222222222",
" @@@@@@@       222222222",
" ooooooooooooX .22222222",
" oXXXX$$$OXXXO .22222222",
" oXXX$<$=&OXOX .22222222",
" oXX&>==%%&OXO .22222222",
" oXX&;;%%*.XOX .22222222",
" oXX&$1%*$.OXO .22222222",
" oXXO**--.OXOO .22222222",
" oXOXO...OXOOO .22222222",
"               .22222222",
"2...............22222222",
"2222222..222222222222222",
"2#2###,X@.###2#222222222",
"2+2+++....+++2+222222222",
"222222222222222222222222",
"222222222222222222222222",
"222222222222222222222222"
};
