/* XPM */
static char *ftv_folderclosed[] = {
/* columns rows colors chars-per-pixel */
"24 22 16 1",
"  c #000000",
". c #FFFF00",
"X c #808080",
"o c #C0C0C0",
"O c #FFFFFF",
"+ c #000000",
"@ c #000000",
"# c #000000",
"$ c #000000",
"% c None",
"& c #000000",
"* c #000000",
"= c #000000",
"- c #000000",
"; c #000000",
": c #FFFFFF",
/* pixels */
"%%%%%%%%%%%%%%%%%%%%%%%%",
"%%%%%%%%%%%%%%%%%%%%%%%%",
"%%%%%%%%%%%%%%%%%%%%%%%%",
"%%%%%%%%%%%%%%%%%%%%%%%%",
"%%XXXXX%%%%%%%%%%%%%%%%%",
"%Xo.o.oX%%%%%%%%%%%%%%%%",
"Xo.o.o.oXXXXXX%%%%%%%%%%",
"X::::::::::::X %%%%%%%%%",
"X:.o.o.o.o.o.X %%%%%%%%%",
"X:o.o.o.o.o.oX %%%%%%%%%",
"X:.o.o.o.o.o.X %%%%%%%%%",
"X:o.o.o.o.o.oX %%%%%%%%%",
"X:.o.o.o.o.o.X %%%%%%%%%",
"X:o.o.o.o.o.oX %%%%%%%%%",
"X:.o.o.o.o.o.X %%%%%%%%%",
"XXXXXXXXXXXXXX %%%%%%%%%",
"%              %%%%%%%%%",
"%%%%%%%%%%%%%%%%%%%%%%%%",
"%%%%%%%%%%%%%%%%%%%%%%%%",
"%%%%%%%%%%%%%%%%%%%%%%%%",
"%%%%%%%%%%%%%%%%%%%%%%%%",
"%%%%%%%%%%%%%%%%%%%%%%%%"
};
