/* XPM */
static char *ftv_link[] = {
/* columns rows colors chars-per-pixel */
"24 22 16 1",
"  c #000000",
". c #008000",
"X c #FFFF00",
"o c #000080",
"O c #0000FF",
"+ c #008080",
"@ c #808080",
"# c #C0C0C0",
"$ c #FFFFFF",
"% c #000000",
"& c #000000",
"* c #000000",
"= c #000000",
"- c #000000",
"; c #000000",
": c None",
/* pixels */
"::::::::::::::::::::::::",
"::::::::::::::::::::::::",
"::::::::::::::::::::::::",
":@@@@@@@@@@:::::::::::::",
":@:::X:::X#@::::::::::::",
":@:X:::X::#:@:::::::::::",
":@:::X:::X    ::::::::::",
":@:X:#+++#:X# ::::::::::",
":@::#+@+.+#:# ::::::::::",
":@:X+#+O+.@X# ::::::::::",
":@::+:#.oOo:# ::::::::::",
":@:X+#@.+OoX# ::::::::::",
"@@@@@@ .Ooo:# ::::::::::",
"@::::: oo #X# ::::::::::",
"@::  :   #::# ::::::::::",
"@: @ : X:::X# ::::::::::",
"@: ::: ::X::# ::::::::::",
"@::::: ###### ::::::::::",
"              ::::::::::",
"::::::::::::::::::::::::",
"::::::::::::::::::::::::",
"::::::::::::::::::::::::"
};
