/* XPM */
static char *ftv_folderopen[] = {
/* columns rows colors chars-per-pixel */
"24 22 16 1",
"  c #000000",
". c #FFFF00",
"X c #808080",
"o c #C0C0C0",
"O c #FFFFFF",
"+ c #000000",
"@ c #000000",
"# c #000000",
"$ c #000000",
"% c #000000",
"& c None",
"* c #000000",
"= c #000000",
"- c #000000",
"; c #000000",
": c #FFFFFF",
/* pixels */
"&&&&&&&&&&&&&&&&&&&&&&&&",
"&&&&&&&&&&&&&&&&&&&&&&&&",
"&&&&&&&&&&&&&&&&&&&&&&&&",
"&&&&&&&&&&&&&&&&&&&&&&&&",
"&&&XXXXX&&&&&&&&&&&&&&&&",
"&&X:::::X&&&&&&&&&&&&&&&",
"&X:o.o.o:XXXXXX&&&&&&&&&",
"&X:.o.o.o:::::X &&&&&&&&",
"&X:o.o.o.o.o.oX &&&&&&&&",
"XXXXXXXXXXXXX.X &&&&&&&&",
"X::::::::::X oX &&&&&&&&",
"X:o.o.o.o.o. XX &&&&&&&&",
"&X:o.o.o.o.oX X &&&&&&&&",
"&X:.o.o.o.o.o X &&&&&&&&",
"&&X:.o.o.o.o.X  &&&&&&&&",
"&&XXXXXXXXXXXX  &&&&&&&&",
"&&&             &&&&&&&&",
"&&&&&&&&&&&&&&&&&&&&&&&&",
"&&&&&&&&&&&&&&&&&&&&&&&&",
"&&&&&&&&&&&&&&&&&&&&&&&&",
"&&&&&&&&&&&&&&&&&&&&&&&&",
"&&&&&&&&&&&&&&&&&&&&&&&&"
};
