/* XPM */
static char *ftv_vertline[] = {
/* columns rows colors chars-per-pixel */
"16 22 16 1",
"  c #808080",
". c #FFFFFF",
"X c #000000",
"o c #000000",
"O c #000000",
"+ c #000000",
"@ c #000000",
"# c #000000",
"$ c #000000",
"% c #000000",
"& c #000000",
"* c #000000",
"= c #000000",
"- c #000000",
"; c #000000",
": c None",
/* pixels */
"::::::::::::::::",
"::::::: ::::::::",
"::::::::::::::::",
"::::::: ::::::::",
"::::::::::::::::",
"::::::: ::::::::",
"::::::::::::::::",
"::::::: ::::::::",
"::::::::::::::::",
"::::::: ::::::::",
"::::::::::::::::",
"::::::: ::::::::",
"::::::::::::::::",
"::::::: ::::::::",
"::::::::::::::::",
"::::::: ::::::::",
"::::::::::::::::",
"::::::: ::::::::",
"::::::::::::::::",
"::::::: ::::::::",
"::::::::::::::::",
"::::::: ::::::::"
};
