/* XPM */
static char * mini_col5_xpm[] = {
"16 16 4 1",
" 	c None",
"a	c black",
"b	c green",
"c	c green4",
"     aaaa       ",
"     abbac      ",
"   aaaaaaa      ",
"   ababbaaa     ",
"   abaccaaba    ",
"   ababbaaaaa   ",
"   abaccabccac  ",
"   ababbabbbac  ",
"   abaccaccbac  ",
"   ababbabbbac  ",
"   abaccaccbac  ",
"   ababbabbbac  ",
"   aaaaaaaaaac  ",
"    caccaccccc  ",
"     aaaac      ",
"      cccc      "};
