/* XPM */
static char * mini_host2_xpm[] = {
"16 16 6 1",
" 	c None",
"a	c black",
"b	c white",
"c	c gray50",
"d	c white smoke",
"e	c gray75",
"                ",
"  aaaaaaaaaaa   ",
" accccccccccca  ",
" acaaaaaaaaaca  ",
" acaaaaaaaaaca  ",
" acaaaaaaaaaca  ",
" acaaaaaaaaaca  ",
" acaaaaaaaaaca  ",
" acaaaaaaaaaca  ",
" accccccccccca  ",
"  aaaaaaaaaaa   ",
"  a c c c c a   ",
" a c c c c c a  ",
"a c c c c c c a ",
"aaaaaaaaaaaaaaa ",
"                "};
