/* XPM */
static char * mini_ind6_xpm[] = {
"16 16 4 1",
" 	c None",
"a	c black",
"b	c green",
"c	c green4",
"                ",
"   aaaaaaaaaa   ",
"   abbbbbbbbac  ",
"   abccccccbac  ",
"   abbbaabbbac  ",
"   abccaaccbac  ",
"   abbbbbbbbac  ",
"   abcaaaccbac  ",
"   abbbaabbbac  ",
"   abccaaccbac  ",
"   abbbaabbbac  ",
"   abccaaacbac  ",
"   abbbbbbbbac  ",
"   aaaaaaaaaac  ",
"    cccccccccc  ",
"                "};
