/* XPM */
static char * mini_obj3_xpm[] = {
"16 16 4 1",
" 	c None",
"a	c black",
"b	c green",
"c	c green4",
"                ",
"                ",
"      aaa       ",
"    aabbbaa     ",
"   abbbbbbba    ",
"  abbbbbbbbba   ",
"  abbbbbbbbbac  ",
" abbbbbbbbbbba  ",
"  abbbbbbbbbacc ",
"  abbbbbbbbbac  ",
"   abbbbbbbacc  ",
"    aabbbaacc   ",
"     caaaccc    ",
"       ccc      ",
"                ",
"                "};
