/* XPM */
static char *magick[] = {
/* columns rows colors chars-per-pixel */
"64 64 114 2",
"   c #000001",
".  c #0c0c0c",
"X  c #141414",
"o  c #1c1c1c",
"O  c #060a22",
"+  c #0e1232",
"@  c #1a1a22",
"#  c #232323",
"$  c #2c2c2c",
"%  c #262632",
"&  c #333333",
"*  c #393939",
"=  c #1a1e46",
"-  c #3e3e52",
";  c #444444",
":  c #46474a",
">  c #47484e",
",  c gray30",
"<  c #484851",
"1  c #545454",
"2  c #5b5b5b",
"3  c #636363",
"4  c #6d6d6d",
"5  c #727272",
"6  c #7c7c7c",
"7  c #1e2696",
"8  c #1e2ab2",
"9  c #2a2e86",
"0  c #232cba",
"q  c #2632bb",
"w  c #2b34bd",
"e  c #2e3abe",
"r  c #323abe",
"t  c #2d39c0",
"y  c #363ec2",
"u  c #3541c1",
"i  c #3c44c2",
"p  c #7276a2",
"a  c #444cc6",
"s  c #4952c6",
"d  c #4e56ca",
"f  c #535bc9",
"g  c #585fcb",
"h  c #5b63cd",
"j  c #6167cf",
"k  c #626ace",
"l  c #6b73d1",
"z  c #7276d2",
"x  c #747bd5",
"c  c #7a7ed6",
"v  c #7a83d6",
"b  c #7d85d8",
"n  c #848484",
"m  c #85868d",
"M  c #8d8d8d",
"N  c #878793",
"B  c #878999",
"V  c #8d8e97",
"C  c #888a9e",
"Z  c #929293",
"A  c #9c9c9c",
"S  c #9495a3",
"D  c #9b9ba6",
"F  c #a3a3a4",
"G  c #a6a7a9",
"H  c #aaaaaa",
"J  c #a7a9bc",
"K  c #b3b3b3",
"L  c #bbbbbb",
"P  c #8184d6",
"I  c #8286da",
"U  c #848ad9",
"Y  c #8a8eda",
"T  c #8d92dc",
"R  c #9296de",
"E  c #959bdd",
"W  c #999ddf",
"Q  c #9a9ee2",
"!  c #9ea3e2",
"~  c #bebece",
"^  c #a0a3e2",
"/  c #a5aae2",
"(  c #aaace6",
")  c #adb0e5",
"_  c #b2b6e6",
"`  c #b6b6ea",
"'  c #b5b9e9",
"]  c #bbbeea",
"[  c #bdc1ea",
"{  c #c6c6c6",
"}  c #cccccc",
"|  c #c3c4d8",
" . c #d2d2d2",
".. c #dbdbdb",
"X. c #c2c5ec",
"o. c #c6c9ed",
"O. c #caccee",
"+. c #ced0ef",
"@. c #ced1f1",
"#. c #dedee6",
"$. c #d8d9e8",
"%. c #d2d4f1",
"&. c #d6d8f2",
"*. c #dbdcf4",
"=. c #dee2f6",
"-. c #e3e3e3",
";. c #ebebeb",
":. c #e4e5f5",
">. c #e6e9f9",
",. c #ebebf9",
"<. c #f4f4f4",
"1. c #f4f4fb",
"2. c #f6fafe",
"3. c #fefefe",
/* pixels */
"3.3.3.3.3.3.3.3.3.3.3.3.3.3.3.3.3.3.3.3.3.3.3.3.3.3.3.3.3.3.3.3.3.3.3.3.3.3.3.3.3.3.3.3.3.3.3.3.3.3.3.3.3.3.3.3.3.3.3.3.3.3.3.3.",
"3.3.3.3.3.3.3.3.3.3.3.3.3.3.3.3.3.3.3.3.3.3.3.3.3.3.3.3.3.3.3.3.3.3.3.3.3.3.3.3.3.3.3.3.3.3.3.3.3.3.3.3.3.3.3.3.3.3.3.3.3.3.3.3.",
"3.3.3.3.3.3.3.3.3.3.3.3.3.3.3.3.3.3.3.3.3.3.2._ I x P / ,.3.3.3.3.3.3.2.K 2 $ o $ 2 } 3.3.3.3.3.3.3.3.3.3.3.3.3.3.3.3.3.3.3.3.3.",
"3.3.3.3.3.3.3.3.3.3.3.3.3.3.3.3.3.3.3.3.3.O.a 8 0 a a 0 q x ,.3.3.3.6 $     ; 3 &   . n 3.3.3.3.3.3.3.3.3.3.3.3.3.3.3.3.3.3.3.3.",
"3.3.3.3.3.3.3.3.3.3.3.3.3.3.3.3.3.3.3.3.O.w 0 k :.3.3.*.c q u [ 3.5   . 4 -.3.3.3.K X   M 3.3.3.3.3.3.3.3.3.3.3.3.3.3.3.3.3.3.3.",
"3.3.3.3.3.3.3.3.3.3.3.3.3.3.3.3.3.3.3.1.u 0 c 3.3.3.3.3.3.O.i 0 -   o 6 3.3.3.3.3.3.} . .  .3.3.3.3.3.3.3.3.3.3.3.3.3.3.3.3.3.3.",
"3.3.3.3.3.3.3.3.3.3.3.3.3.3.3.3.3.3.3.U 0 a 1.3.3.3.3.3.3.3.:.=   @ ..3.3.3.3.3.3.3.3.Z   , 3.3.3.3.3.3.3.3.3.3.3.3.3.3.3.3.3.3.",
"3.3.3.3.3.3.3.3.3.3.3.3.3.3.3.3.3.3.1.e 0 X.3.3.3.3.3.3.3.3.5   O 7 ( 3.3.3.3.3.3.3.3.2.#   ..3.3.3.3.3.3.3.3.3.3.3.3.3.3.3.3.3.",
"3.3.3.3.3.3.3.3.3.3.3.3.3.3.3.3.3.3.( 0 a 3.3.3.3.3.3.3.3.F   X ~ i w @.3.3.3.3.3.3.3.3.n   6 3.3.3.3.3.3.3.3.3.3.3.3.3.3.3.3.3.",
"3.3.3.3.3.3.3.3.3.3.3.3.3.3.3.3.3.3.j 8 T 3.3.3.3.3.3.3. ..   H 3.&.w i ,.3.3.3.3.3.3.3...  & 3.3.3.3.3.3.3.3.3.3.3.3.3.3.3.3.3.",
"3.3.3.3.3.3.3.3.3.3.3.3.3.3.3.3.3.2.w 0 %.3.3.3.3.3.3.2.*   4 3.3.3./ 8 z 3.3.3.3.3.3.3.3.$   ;.3.3.3.3.3.3.3.3.3.3.3.3.3.3.3.3.",
"3.3.3.3.3.3.3.3.3.3.3.3.3.3.3.3.3.%.0 r 2.3.3.3.3.3.3.M   # ;.3.3.3.3.k 8 ' 3.3.3.3.3.3.3.4   L 3.3.3.3.3.3.3.3.3.3.3.3.3.3.3.3.",
"3.3.3.3.3.3.3.3.3.3.3.3.3.3.3.3.3.) 0 f 3.3.3.3.3.3.-..   L 3.3.3.3.3.:.w i 1.3.3.3.3.3.3.Z   M 3.3.3.3.3.3.3.3.3.3.3.3.3.3.3.3.",
"3.3.3.3.3.3.3.3.3.3.3.3.3.3.3.3.3.T 0 x 3.3.3.3.3.3.1   2 3.3.3.3.3.3.3.Q 0 U 3.3.3.3.3.3.K   4 3.3.3.3.3.3.3.3.3.3.3.3.3.3.3.3.",
"3.3.3.3.3.3.3.3.3.3.3.3.3.3.3.3.3.x 8 R 3.3.3.3.3.{     -.3.3.3.3.3.3.3.2.a w :.3.3.3.3.3. .  1 3.3.3.3.3.3.3.3.3.3.3.3.3.3.3.3.",
"3.3.3.3.3.3.3.3.3.3.3.3.3.3.3.3.3.h 0 / 3.3.3.3.3.:   6 3.3.3.3.3.3.3.3.3._ 0 x 3.3.3.3.3.;.  * 3.3.3.3.3.3.3.3.3.3.3.3.3.3.3.3.",
"3.3.3.3.3.3.3.3.3.3.3.3.3.3.3.3.3.d 0 ` 3.3.3.3.{   . ;.3.3.3.3.3.3.3.3.3.3.f r *.3.3.3.3.2.. $ 3.3.3.3.3.3.3.3.3.3.3.3.3.3.3.3.",
"3.3.3.3.3.3.3.3.3.3.3.3.3.3.3.3.3.s 0 ] 3.3.3.3.: . 6 3.3.3.3.3.3.3.3.3.3.3.] w b 3.3.3.3.<.. $ 3.3.3.3.3.3.3.3.3.3.3.3.3.3.3.3.",
"3.3.3.3.3.3.3.3.3.3.3.3.3.3.3.3.3.s 8 [ 3.3.3. .  . -.3.3.3.3.3.3.3.3.3.3.3.2.f i ,.3.3.3.2.X $ 3.3.3.3.3.3.3.3.3.3.3.3.3.3.3.3.",
"3.3.3.3.3.3.3.3.3.3.3.3.3.3.3.3.3.s q [ 3.3.3.4 . 3 3.3.3.3.3.3.3.3.3.3.3.3.3.) i W 3.3.3.<.# $ 3.3.3.3.3.3.3.3.3.3.3.3.3.3.3.3.",
"3.3.3.3.3.3.3.3.3.3.3.3.3.3.3.3.3.h i [ 3.3.;.o X { 3.3.3.3.3.3.3.3.3.3.3.3.3.1.g h 3.3.3.<.* , 3.3.3.3.3.3.3.3.3.3.3.3.3.3.3.3.",
"3.3.3.3.3.3.3.3.3.3.3.3.3.3.3.3.3.b h X.3.3.H $ , 3.3.3.3.3.3.3.3.3.3.3.3.3.3.3./ l O.3.3.<., 4 3.3.3.3.3.3.3.3.3.3.3.3.3.3.3.3.",
"3.3.3.3.3.3.3.3.3.3.3.3.3.3.3.3.3./ U O.3.3.n 1 K 3.3.3.3.3.3.3.3.3.3.3.3.3.3.3.:.T ) 3.3.;.5 Z 3.3.3.3.3.3.3.3.3.3.3.3.3.3.3.3.",
"3.3.3.3.3.3.3.3.3.3.3.3.3.3.3.3.3.o./ %.3.;.n 6 <.3.3.3.3.3.3.3.3.3.3.3.3.3.3.3.3._ / 2.3.-.Z K 3.3.3.3.3.3.3.3.3.3.3.3.3.3.3.3.",
"3.3.3.3.3.3.3.3.3.3.3.3.3.3.3.3.3.*.] &.3. .A K 3.3.3.3.3.3.3.3.3.3.3.3.3.3.3.3.3.*.' *.3.-.F } 3.3.3.3.3.3.3.3.3.3.3.3.3.3.3.3.",
"3.3.3.3.3.3.3.3.3.3.3.3.3.3.3.3.3.>.O.&.3.} K -.3.3.3.3.3.3.3.3.3.3.3.3.3.3.3.3.3.1.[ @.3...K -.3.3.3.3.3.3.3.3.3.3.3.3.3.3.3.3.",
"3.3.3.3.3.3.3.3.3.3.3.3.3.3.3.3.3.1.%.&.<.} { 2.3.3.3.3.3.3.3.3.3.3.3.3.3.3.3.3.3.3.%.O.2...L ;.3.3.3.3.3.3.3.3.3.3.3.3.3.3.3.3.",
"3.3.3.3.3.3.3.3.3.3.3.3.3.3.3.3.3.2.&.&.-.} ..3.3.3.3.3.3.3.3.3.3.3.3.3.3.3.3.3.3.3.:.O.,. .{ <.3.3.3.3.3.3.3.3.3.3.3.3.3.3.3.3.",
"3.3.3.3.3.{ H H -.3.3.{ H H H H H H | J Z M A H H 3.3.3.H H H H H H -.3.3.3.{ H -.3.1.O.| n n -.3.3.{ H H 3.3.3.H H H 3.3.3.3.3.",
"3.3.3.3.1         5 3.1             S <           o 3.3.            H 3.3.3.o   1 3.3.@.C     H 3.3.      3.-.o       o H 3.3.3.",
"3.3.3.H   M 3.3.1   { 3.3.3.  1 3.3.:.>    .3.3.1   H 3.  1 3.3.3.3.3.3.3.{       -.3.*.B     5 3.-.  o   3.1   -.3.-.o o 3.3.3.",
"3.3.3.H   1 3.3.-.H -.3.3.3.  1 3.3.,.:   -.3.3.M   H 3.  1 3.3.3.3.3.3.3.5   1   M 3.,.N   & * 3.H   1   3.1   H 3.3.{ H 3.3.3.",
"3.3.3.3.o     & 1 { 3.3.3.3.  1 3.3.2.;   , 1 1   1 3.3.            3.3.3.  * -.  * 3.1.m   4   3.1 1 1   3.{       1 5 -.3.3.3.",
"3.3.3.3.3.H 1 *     H 3.3.3.  1 3.3.3.:   , 1 *   M 3.3.  * H H H H 3.3.H   M 3.1   -.3.n   H   H * 5 1   3.3.-.M 1 o   o -.3.3.",
"3.3.3.{ H -.3.3.-.  1 3.3.3.  1 3.3.<.;   ,.3.3.*   3.3.  1 3.3.3.3.3.3.1           M <.n   G * M   H 1   3.H H 3.3.3.M   H 3.3.",
"3.3.3.M   1 3.3.H   5 3.3.3.  1 3.3.<.;   :.3.3.1   3.3.  1 3.3.3.3.3.-.  * H H H   * ;.n   D 5     3.1   3.*   H 3.3.1   { 3.3.",
"3.3.3.3.*         * -.3.3.3.  1 3.3.;.;   *.3.3.1   -.3.            H M   H 3.3.3.1   L n   D H   * 3.1   3.{ o         5 3.3.3.",
"3.3.3.3.3.{ H H { 3.3.3.3.3.H { 3.3.-.F V &.1.3.{ H -.3.H H H H H H -.{ H -.3.3.3.-.H H K C | -.H { 3.{ H 3.3.3.H H H -.3.3.3.3.",
"3.3.3.3.3.3.3.3.3.3.3.3.3.3.3.3.3.3...} $.&.,.3.3.3.3.3.3.3.3.3.3.3.3.3.3.3.3.3.3.3.;.~  .o.%.3.3.3.3.3.3.3.3.3.3.3.3.3.3.3.3.3.",
"3.3.3.3.3.3.3.3.3.3.3.3.3.3.3.3.3.3. .} :.@.&.3.3.3.3.3.3.3.3.3.3.3.3.3.3.3.3.3.3.3.} K ;.o.[ 3.3.3.3.3.3.3.3.3.3.3.3.3.3.3.3.3.",
"3.3.3.3.3.3.3.3.3.3.3.3.3.3.3.3.3.3.L L <.o.[ 1.3.3.3.3.3.3.3.3.3.3.3.3.3.3.3.3.3.3.F H 3.[ ( 3.3.3.3.3.3.3.3.3.3.3.3.3.3.3.3.3.",
"3.3.3.3.3.3.3.3.3.3.3.3.3.3.3.3.3.<.A D 3.X.! o.3.3.3.3.3.3.3.3.3.3.3.3.3.3.3.3.3. .6 K 3.' E <.3.3.3.3.3.3.3.3.3.3.3.3.3.3.3.3.",
"3.3.3.3.3.3.3.3.3.3.3.3.3.3.3.3.3.-.4 6 3.&.z v 2.3.3.3.3.3.3.3.3.3.3.3.3.3.3.3.3.n 1 -.3.( x :.3.3.3.3.3.3.3.3.3.3.3.3.3.3.3.3.",
"3.3.3.3.3.3.3.3.3.3.3.3.3.3.3.3.3.} ; 3 3.3.j s O.3.3.3.3.3.3.3.3.3.3.3.3.3.3.3.;.$ 1 <.3.! f %.3.3.3.3.3.3.3.3.3.3.3.3.3.3.3.3.",
"3.3.3.3.3.3.3.3.3.3.3.3.3.3.3.3.3.L # 1 3.3.! y l 3.3.3.3.3.3.3.3.3.3.3.3.3.3.3.M X F 3.3.! i O.3.3.3.3.3.3.3.3.3.3.3.3.3.3.3.3.",
"3.3.3.3.3.3.3.3.3.3.3.3.3.3.3.3.3.K X : 3.3.>.w w :.3.3.3.3.3.3.3.3.3.3.3.3.3.2.# o ;.3.3.! w ] 3.3.3.3.3.3.3.3.3.3.3.3.3.3.3.3.",
"3.3.3.3.3.3.3.3.3.3.3.3.3.3.3.3.3.K . ; 3.3.3.z 0 U 3.3.3.3.3.3.3.3.3.3.3.3.3.G   5 3.3.3.! q ' 3.3.3.3.3.3.3.3.3.3.3.3.3.3.3.3.",
"3.3.3.3.3.3.3.3.3.3.3.3.3.3.3.3.3.K   * 3.3.3.&.0 w ,.3.3.3.3.3.3.3.3.3.3.3.3.&   -.3.3.3.! w ' 3.3.3.3.3.3.3.3.3.3.3.3.3.3.3.3.",
"3.3.3.3.3.3.3.3.3.3.3.3.3.3.3.3.3.L   * 3.3.3.3.j 0 R 3.3.3.3.3.3.3.3.3.3.3.K . 3 3.3.3.3.W q X.3.3.3.3.3.3.3.3.3.3.3.3.3.3.3.3.",
"3.3.3.3.3.3.3.3.3.3.3.3.3.3.3.3.3. .  $ 3.3.3.3.%.0 e ,.3.3.3.3.3.3.3.3.3.3.&   -.3.3.3.3.Y 0 O.3.3.3.3.3.3.3.3.3.3.3.3.3.3.3.3.",
"3.3.3.3.3.3.3.3.3.3.3.3.3.3.3.3.3.-.  o 3.3.3.3.3.l 0 U 3.3.3.3.3.3.3.3.3.G   5 3.3.3.3.3.c 0 =.3.3.3.3.3.3.3.3.3.3.3.3.3.3.3.3.",
"3.3.3.3.3.3.3.3.3.3.3.3.3.3.3.3.3.2..   ;.3.3.3.3.*.q w =.3.3.3.3.3.3.3.<.# X ;.3.3.3.3.3.h w 1.3.3.3.3.3.3.3.3.3.3.3.3.3.3.3.3.",
"3.3.3.3.3.3.3.3.3.3.3.3.3.3.3.3.3.3.&   { 3.3.3.3.3.U 0 j 3.3.3.3.3.3.3.5   A 3.3.3.3.3.3.a i 3.3.3.3.3.3.3.3.3.3.3.3.3.3.3.3.3.",
"3.3.3.3.3.3.3.3.3.3.3.3.3.3.3.3.3.3.2   F 3.3.3.3.3.1.a 0 _ 3.3.3.3.3. .. * 3.3.3.3.3.3.<.w j 3.3.3.3.3.3.3.3.3.3.3.3.3.3.3.3.3.",
"3.3.3.3.3.3.3.3.3.3.3.3.3.3.3.3.3.3.Z   3 3.3.3.3.3.3.X.0 r ,.3.3.3.<.& . ..3.3.3.3.3.3.O.0 R 3.3.3.3.3.3.3.3.3.3.3.3.3.3.3.3.3.",
"3.3.3.3.3.3.3.3.3.3.3.3.3.3.3.3.3.3...  o 2.3.3.3.3.3.3.U 0 h 3.3.3.4   A 3.3.3.3.3.3.3.U 0 O.3.3.3.3.3.3.3.3.3.3.3.3.3.3.3.3.3.",
"3.3.3.3.3.3.3.3.3.3.3.3.3.3.3.3.3.3.3.&   { 3.3.3.3.3.3.2.f 8 Y 3.A   3 3.3.3.3.3.3.3.3.a u 2.3.3.3.3.3.3.3.3.3.3.3.3.3.3.3.3.3.",
"3.3.3.3.3.3.3.3.3.3.3.3.3.3.3.3.3.3.3.Z   1 3.3.3.3.3.3.3.,.i 0 p   ; 2.3.3.3.3.3.3.3.[ 0 U 3.3.3.3.3.3.3.3.3.3.3.3.3.3.3.3.3.3.",
"3.3.3.3.3.3.3.3.3.3.3.3.3.3.3.3.3.3.3.<.o   { 3.3.3.3.3.3.3.*.9   % ;.3.3.3.3.3.3.3.3.f 0 :.3.3.3.3.3.3.3.3.3.3.3.3.3.3.3.3.3.3.",
"3.3.3.3.3.3.3.3.3.3.3.3.3.3.3.3.3.3.3.3.G   # ;.3.3.3.3.3.2.M   + 0 R 3.3.3.3.3.3.3.R 0 Y 3.3.3.3.3.3.3.3.3.3.3.3.3.3.3.3.3.3.3.",
"3.3.3.3.3.3.3.3.3.3.3.3.3.3.3.3.3.3.3.3.3.5   $ } 3.3.3.} ;   5 #.f 8 h %.3.3.3.3.E 0 g 1.3.3.3.3.3.3.3.3.3.3.3.3.3.3.3.3.3.3.3.",
"3.3.3.3.3.3.3.3.3.3.3.3.3.3.3.3.3.3.3.3.3.3.M .   * 2 $   * { 3.3.2.E w 0 h R T a 0 k ,.3.3.3.3.3.3.3.3.3.3.3.3.3.3.3.3.3.3.3.3.",
"3.3.3.3.3.3.3.3.3.3.3.3.3.3.3.3.3.3.3.3.3.3.3.;.G n n A ..3.3.3.3.3.3.1./ z g h x ] 3.3.3.3.3.3.3.3.3.3.3.3.3.3.3.3.3.3.3.3.3.3.",
"3.3.3.3.3.3.3.3.3.3.3.3.3.3.3.3.3.3.3.3.3.3.3.3.3.3.3.3.3.3.3.3.3.3.3.3.3.3.3.3.3.3.3.3.3.3.3.3.3.3.3.3.3.3.3.3.3.3.3.3.3.3.3.3."
};
